<svg xmlns="http://www.w3.org/2000/svg" xmlns:xlink="http://www.w3.org/1999/xlink" width="500" zoomAndPan="magnify" viewBox="0 0 375 374.999991" height="500" preserveAspectRatio="xMidYMid meet" version="1.0"><path fill="#61dafb" d="M 187.511719 249.152344 C 146.070312 249.152344 107.085938 242.984375 77.746094 231.785156 C 48.015625 220.4375 31.640625 205.191406 31.640625 188.859375 C 31.640625 172.527344 48.015625 157.285156 77.746094 145.9375 C 107.085938 134.738281 146.070312 128.570312 187.511719 128.570312 C 228.957031 128.570312 267.941406 134.738281 297.28125 145.9375 C 327.011719 157.285156 343.386719 172.527344 343.386719 188.859375 C 343.386719 205.191406 327.011719 220.4375 297.28125 231.785156 C 267.941406 242.984375 228.957031 249.152344 187.511719 249.152344 Z M 187.511719 131.140625 C 146.375 131.140625 107.71875 137.25 78.664062 148.339844 C 50 159.28125 34.214844 173.671875 34.214844 188.859375 C 34.214844 204.050781 50 218.441406 78.664062 229.382812 C 107.71875 240.472656 146.375 246.578125 187.511719 246.578125 C 228.652344 246.578125 267.308594 240.472656 296.363281 229.382812 C 325.027344 218.441406 340.8125 204.050781 340.8125 188.859375 C 340.8125 173.671875 325.027344 159.28125 296.363281 148.339844 C 267.308594 137.25 228.652344 131.140625 187.511719 131.140625 Z M 187.511719 131.140625 " fill-opacity="1" fill-rule="nonzero"/><path fill="#61dafb" d="M 251.914062 327.230469 C 239.035156 327.230469 222.980469 319.789062 205.210938 305.351562 C 180.839844 285.550781 156.003906 254.886719 135.28125 219.007812 C 114.558594 183.125 100.410156 146.292969 95.445312 115.292969 C 90.410156 83.878906 95.429688 62.082031 109.578125 53.914062 C 123.726562 45.75 145.117188 52.304688 169.8125 72.367188 C 194.1875 92.171875 219.019531 122.835938 239.742188 158.714844 C 260.464844 194.59375 274.613281 231.429688 279.582031 262.429688 C 284.617188 293.84375 279.597656 315.640625 265.449219 323.804688 C 261.480469 326.097656 256.9375 327.230469 251.914062 327.230469 Z M 123.179688 53.042969 C 118.589844 53.042969 114.457031 54.070312 110.863281 56.144531 C 97.703125 63.738281 93.128906 84.597656 97.984375 114.886719 C 102.902344 145.582031 116.941406 182.105469 137.511719 217.71875 C 158.082031 253.335938 182.699219 283.746094 206.832031 303.355469 C 230.644531 322.703125 251.003906 329.175781 264.164062 321.578125 C 277.320312 313.984375 281.894531 293.121094 277.042969 262.835938 C 272.121094 232.136719 258.085938 195.617188 237.515625 160 C 216.945312 124.386719 192.328125 93.972656 168.191406 74.363281 C 150.886719 60.304688 135.402344 53.042969 123.179688 53.042969 Z M 123.179688 53.042969 " fill-opacity="1" fill-rule="nonzero"/><path fill="#61dafb" d="M 123.113281 327.230469 C 118.085938 327.230469 113.546875 326.097656 109.578125 323.804688 C 95.429688 315.640625 90.410156 293.84375 95.445312 262.429688 C 100.410156 231.429688 114.558594 194.59375 135.28125 158.714844 C 156.003906 122.835938 180.839844 92.171875 205.210938 72.367188 C 229.90625 52.304688 251.300781 45.75 265.449219 53.914062 C 279.597656 62.082031 284.617188 83.878906 279.582031 115.292969 C 274.613281 146.292969 260.464844 183.125 239.742188 219.007812 C 219.019531 254.886719 194.1875 285.550781 169.8125 305.351562 C 152.046875 319.789062 135.992188 327.230469 123.113281 327.230469 Z M 251.84375 53.042969 C 239.625 53.042969 224.140625 60.300781 206.832031 74.363281 C 182.699219 93.972656 158.082031 124.386719 137.511719 160 C 116.941406 195.617188 102.902344 232.136719 97.984375 262.835938 C 93.128906 293.121094 97.703125 313.984375 110.863281 321.578125 C 114.457031 323.652344 118.589844 324.675781 123.179688 324.679688 C 135.402344 324.679688 150.882812 317.417969 168.191406 303.355469 C 192.328125 283.746094 216.945312 253.335938 237.515625 217.71875 C 258.085938 182.105469 272.121094 145.582031 277.042969 114.886719 C 281.894531 84.597656 277.320312 63.738281 264.164062 56.144531 C 260.570312 54.070312 256.4375 53.042969 251.84375 53.042969 Z M 251.84375 53.042969 " fill-opacity="1" fill-rule="nonzero"/><path fill="#61dafb" d="M 216.320312 188.859375 C 216.320312 189.804688 216.277344 190.746094 216.183594 191.683594 C 216.089844 192.621094 215.953125 193.554688 215.769531 194.480469 C 215.585938 195.40625 215.355469 196.316406 215.082031 197.222656 C 214.808594 198.125 214.492188 199.011719 214.128906 199.882812 C 213.769531 200.753906 213.363281 201.605469 212.921875 202.4375 C 212.476562 203.269531 211.992188 204.078125 211.46875 204.859375 C 210.941406 205.644531 210.382812 206.402344 209.78125 207.132812 C 209.183594 207.859375 208.550781 208.558594 207.882812 209.226562 C 207.21875 209.890625 206.519531 210.523438 205.789062 211.125 C 205.058594 211.722656 204.304688 212.28125 203.519531 212.808594 C 202.734375 213.332031 201.925781 213.816406 201.09375 214.261719 C 200.261719 214.703125 199.410156 215.105469 198.539062 215.46875 C 197.664062 215.828125 196.777344 216.148438 195.875 216.421875 C 194.972656 216.695312 194.058594 216.921875 193.132812 217.105469 C 192.207031 217.292969 191.277344 217.429688 190.335938 217.523438 C 189.398438 217.613281 188.457031 217.660156 187.511719 217.660156 C 186.570312 217.660156 185.628906 217.613281 184.6875 217.523438 C 183.75 217.429688 182.816406 217.292969 181.890625 217.105469 C 180.96875 216.921875 180.054688 216.695312 179.148438 216.421875 C 178.246094 216.148438 177.359375 215.828125 176.488281 215.46875 C 175.617188 215.105469 174.765625 214.703125 173.933594 214.261719 C 173.101562 213.816406 172.292969 213.332031 171.507812 212.808594 C 170.722656 212.28125 169.964844 211.722656 169.238281 211.125 C 168.507812 210.523438 167.808594 209.890625 167.140625 209.226562 C 166.472656 208.558594 165.839844 207.859375 165.242188 207.132812 C 164.644531 206.402344 164.082031 205.644531 163.558594 204.859375 C 163.035156 204.078125 162.550781 203.269531 162.105469 202.4375 C 161.660156 201.605469 161.257812 200.753906 160.894531 199.882812 C 160.535156 199.011719 160.21875 198.125 159.945312 197.222656 C 159.671875 196.316406 159.441406 195.40625 159.257812 194.480469 C 159.074219 193.554688 158.933594 192.621094 158.84375 191.683594 C 158.75 190.746094 158.703125 189.804688 158.703125 188.859375 C 158.703125 187.917969 158.75 186.976562 158.84375 186.039062 C 158.933594 185.097656 159.074219 184.167969 159.257812 183.242188 C 159.441406 182.316406 159.671875 181.402344 159.945312 180.5 C 160.21875 179.597656 160.535156 178.710938 160.894531 177.839844 C 161.257812 176.96875 161.660156 176.117188 162.105469 175.285156 C 162.550781 174.453125 163.035156 173.644531 163.558594 172.859375 C 164.082031 172.074219 164.644531 171.320312 165.242188 170.589844 C 165.839844 169.859375 166.472656 169.164062 167.140625 168.496094 C 167.808594 167.828125 168.507812 167.195312 169.238281 166.597656 C 169.964844 166 170.722656 165.4375 171.507812 164.914062 C 172.292969 164.390625 173.101562 163.90625 173.933594 163.460938 C 174.765625 163.015625 175.617188 162.613281 176.488281 162.253906 C 177.359375 161.890625 178.246094 161.574219 179.148438 161.300781 C 180.054688 161.027344 180.96875 160.796875 181.890625 160.613281 C 182.816406 160.429688 183.75 160.292969 184.6875 160.199219 C 185.628906 160.105469 186.570312 160.0625 187.511719 160.0625 C 188.457031 160.0625 189.398438 160.105469 190.335938 160.199219 C 191.277344 160.292969 192.207031 160.429688 193.132812 160.613281 C 194.058594 160.796875 194.972656 161.027344 195.875 161.300781 C 196.777344 161.574219 197.664062 161.890625 198.539062 162.253906 C 199.410156 162.613281 200.261719 163.015625 201.09375 163.460938 C 201.925781 163.90625 202.734375 164.390625 203.519531 164.914062 C 204.304688 165.4375 205.058594 166 205.789062 166.597656 C 206.519531 167.195312 207.21875 167.828125 207.882812 168.496094 C 208.550781 169.164062 209.183594 169.859375 209.78125 170.589844 C 210.382812 171.320312 210.941406 172.074219 211.46875 172.859375 C 211.992188 173.644531 212.476562 174.453125 212.921875 175.285156 C 213.363281 176.117188 213.769531 176.96875 214.128906 177.839844 C 214.492188 178.710938 214.808594 179.597656 215.082031 180.5 C 215.355469 181.402344 215.585938 182.316406 215.769531 183.242188 C 215.953125 184.167969 216.089844 185.097656 216.183594 186.039062 C 216.277344 186.976562 216.320312 187.917969 216.320312 188.859375 Z M 216.320312 188.859375 " fill-opacity="1" fill-rule="nonzero"/><path fill="#f2f2f2" d="M 363.28125 268.335938 C 362.738281 267.417969 360.390625 268.398438 359.957031 267.570312 C 359.527344 266.742188 361.710938 265.480469 362.957031 262.597656 C 363.183594 262.078125 364.601562 258.804688 363.550781 257.792969 C 361.5625 255.878906 352.460938 263.78125 349.277344 261.195312 C 348.578125 260.628906 348.089844 259.496094 345.976562 257.65625 C 345.132812 256.925781 344.625 256.59375 344.132812 256.714844 C 343.433594 256.890625 343.378906 257.824219 342.628906 259.664062 C 341.503906 262.421875 340.839844 262.253906 340.1875 264.453125 C 339.699219 266.085938 339.8125 267.035156 339.238281 267.222656 C 338.429688 267.484375 337.683594 265.75 336.660156 265.90625 C 335.613281 266.0625 334.980469 268.082031 334.78125 269.589844 C 334.40625 272.421875 335.445312 274.292969 336.023438 276.257812 C 336.648438 278.394531 337.019531 281.644531 335.574219 286.242188 L 321.242188 326.601562 C 324.40625 318.320312 333.566406 295.617188 337.417969 287.183594 C 338.527344 284.746094 339.753906 282.277344 342.273438 281.300781 C 344.699219 280.363281 348.027344 280.921875 352.277344 279.902344 C 352.769531 279.78125 354.148438 279.429688 354.320312 278.621094 C 354.464844 277.953125 353.65625 277.578125 353.777344 276.953125 C 353.945312 276.113281 355.539062 276.101562 357.492188 275.132812 C 358.875 274.449219 359.730469 273.636719 360.472656 272.9375 C 360.695312 272.726562 364.007812 269.554688 363.28125 268.335938 Z M 363.28125 268.335938 " fill-opacity="1" fill-rule="nonzero"/><path fill="#f2f2f2" d="M 306.90625 289.582031 C 306.300781 289.585938 306.105469 291.019531 305.570312 290.992188 C 305.042969 290.964844 305.050781 289.53125 303.996094 288.085938 C 303.808594 287.824219 302.609375 286.1875 301.808594 286.410156 C 300.296875 286.832031 301.550781 293.578125 299.363281 294.394531 C 298.882812 294.574219 298.183594 294.484375 296.671875 294.992188 C 296.066406 295.195312 295.757812 295.347656 295.675781 295.625 C 295.5625 296.019531 296.003906 296.316406 296.691406 297.214844 C 297.71875 298.5625 297.445312 298.839844 298.335938 299.792969 C 299 300.503906 299.496094 300.722656 299.421875 301.058594 C 299.316406 301.53125 298.253906 301.394531 298.03125 301.945312 C 297.808594 302.503906 298.617188 303.394531 299.300781 303.929688 C 300.582031 304.929688 301.800781 304.960938 302.933594 305.242188 C 304.160156 305.550781 305.863281 306.308594 307.703125 308.34375 L 323.386719 327.019531 C 320.230469 323.078125 311.730469 312.035156 308.699219 307.710938 C 307.824219 306.464844 306.964844 305.148438 307.210938 303.632812 C 307.449219 302.171875 308.6875 300.699219 309.410156 298.320312 C 309.496094 298.042969 309.71875 297.265625 309.371094 296.949219 C 309.085938 296.683594 308.667969 296.972656 308.398438 296.730469 C 308.03125 296.40625 308.484375 295.625 308.574219 294.382812 C 308.636719 293.511719 308.484375 292.855469 308.355469 292.289062 C 308.316406 292.117188 307.714844 289.578125 306.90625 289.582031 Z M 306.90625 289.582031 " fill-opacity="1" fill-rule="nonzero"/><path fill="#f2f2f2" d="M 319 292.296875 L 318.632812 289.035156 L 318.800781 288.789062 C 319.574219 287.648438 319.96875 286.53125 319.972656 285.472656 C 319.972656 285.304688 319.964844 285.136719 319.957031 284.964844 C 319.925781 284.285156 319.886719 283.4375 320.328125 282.453125 C 320.574219 281.90625 321.269531 280.632812 322.3125 280.792969 C 322.59375 280.832031 322.804688 280.960938 322.964844 281.109375 C 322.988281 281.074219 323.015625 281.035156 323.039062 280.992188 C 323.367188 280.5 323.621094 280.285156 323.871094 280.082031 C 324.0625 279.925781 324.257812 279.761719 324.566406 279.378906 C 324.703125 279.210938 324.808594 279.0625 324.894531 278.9375 C 325.167969 278.5625 325.519531 278.113281 326.140625 278.121094 C 326.804688 278.152344 327.152344 278.703125 327.382812 279.066406 C 327.796875 279.714844 327.980469 280.179688 328.105469 280.492188 C 328.148438 280.605469 328.203125 280.730469 328.226562 280.769531 C 328.441406 281.085938 330.179688 280.789062 330.835938 280.683594 C 332.308594 280.4375 333.582031 280.226562 334.109375 281.15625 C 334.484375 281.820312 334.207031 282.695312 333.253906 283.835938 C 332.957031 284.1875 332.640625 284.457031 332.359375 284.667969 C 332.59375 284.808594 332.800781 285.019531 332.886719 285.351562 C 333.082031 286.144531 332.402344 286.933594 330.867188 287.707031 C 330.484375 287.902344 329.972656 288.160156 329.25 288.285156 C 328.910156 288.34375 328.605469 288.355469 328.34375 288.363281 C 328.339844 288.515625 328.304688 288.679688 328.210938 288.847656 C 327.941406 289.34375 327.378906 289.578125 326.535156 289.523438 C 325.601562 289.472656 324.835938 289.296875 324.15625 289.140625 C 323.566406 289.003906 323.058594 288.890625 322.65625 288.917969 C 321.914062 288.976562 321.34375 289.570312 320.675781 290.339844 Z M 319 292.296875 " fill-opacity="1" fill-rule="nonzero"/><path fill="#f2f2f2" d="M 320.695312 272.890625 L 317.632812 274.070312 L 317.351562 273.972656 C 316.050781 273.515625 314.871094 273.417969 313.84375 273.683594 C 313.683594 273.726562 313.519531 273.773438 313.355469 273.824219 C 312.707031 274.027344 311.898438 274.28125 310.835938 274.105469 C 310.242188 274.003906 308.835938 273.65625 308.722656 272.609375 C 308.6875 272.324219 308.757812 272.085938 308.863281 271.894531 C 308.824219 271.878906 308.78125 271.867188 308.734375 271.851562 C 308.171875 271.664062 307.902344 271.46875 307.640625 271.28125 C 307.4375 271.136719 307.234375 270.988281 306.78125 270.785156 C 306.585938 270.699219 306.414062 270.632812 306.273438 270.578125 C 305.839844 270.414062 305.316406 270.1875 305.167969 269.582031 C 305.027344 268.933594 305.472656 268.457031 305.765625 268.140625 C 306.289062 267.578125 306.691406 267.28125 306.960938 267.082031 C 307.058594 267.007812 307.171875 266.925781 307.203125 266.894531 C 307.453125 266.605469 306.726562 264.996094 306.457031 264.390625 C 305.84375 263.027344 305.316406 261.851562 306.082031 261.109375 C 306.628906 260.574219 307.550781 260.625 308.890625 261.253906 C 309.308594 261.453125 309.648438 261.6875 309.925781 261.90625 C 310 261.648438 310.152344 261.390625 310.453125 261.226562 C 311.167969 260.835938 312.105469 261.289062 313.246094 262.582031 C 313.53125 262.898438 313.910156 263.332031 314.210938 263.996094 C 314.355469 264.308594 314.445312 264.601562 314.519531 264.851562 C 314.667969 264.820312 314.835938 264.8125 315.019531 264.859375 C 315.570312 264.992188 315.941406 265.476562 316.101562 266.308594 C 316.289062 267.222656 316.3125 268.011719 316.332031 268.703125 C 316.351562 269.3125 316.371094 269.832031 316.496094 270.210938 C 316.742188 270.914062 317.460938 271.316406 318.375 271.769531 Z M 320.695312 272.890625 " fill-opacity="1" fill-rule="nonzero"/><path fill="#f2f2f2" d="M 319 263.292969 L 318.632812 260.03125 L 318.800781 259.785156 C 319.574219 258.644531 319.96875 257.527344 319.972656 256.46875 C 319.972656 256.300781 319.964844 256.132812 319.957031 255.960938 C 319.925781 255.28125 319.886719 254.433594 320.328125 253.449219 C 320.574219 252.902344 321.269531 251.628906 322.3125 251.785156 C 322.59375 251.824219 322.804688 251.957031 322.964844 252.105469 C 322.988281 252.070312 323.015625 252.03125 323.039062 251.988281 C 323.367188 251.492188 323.621094 251.28125 323.871094 251.078125 C 324.0625 250.917969 324.257812 250.757812 324.566406 250.375 C 324.703125 250.207031 324.808594 250.058594 324.894531 249.933594 C 325.167969 249.558594 325.519531 249.109375 326.140625 249.117188 C 326.804688 249.148438 327.152344 249.695312 327.382812 250.058594 C 327.796875 250.707031 327.980469 251.175781 328.105469 251.484375 C 328.148438 251.597656 328.203125 251.726562 328.226562 251.765625 C 328.441406 252.082031 330.179688 251.785156 330.835938 251.679688 C 332.308594 251.433594 333.582031 251.222656 334.109375 252.148438 C 334.484375 252.8125 334.207031 253.691406 333.253906 254.828125 C 332.957031 255.183594 332.640625 255.453125 332.359375 255.664062 C 332.59375 255.800781 332.800781 256.015625 332.886719 256.347656 C 333.082031 257.136719 332.402344 257.929688 330.867188 258.703125 C 330.484375 258.898438 329.972656 259.15625 329.25 259.28125 C 328.910156 259.339844 328.605469 259.351562 328.34375 259.359375 C 328.339844 259.511719 328.304688 259.675781 328.210938 259.84375 C 327.941406 260.339844 327.378906 260.574219 326.535156 260.519531 C 325.601562 260.46875 324.835938 260.292969 324.15625 260.136719 C 323.566406 260 323.058594 259.886719 322.65625 259.914062 C 321.914062 259.972656 321.34375 260.566406 320.675781 261.335938 Z M 319 263.292969 " fill-opacity="1" fill-rule="nonzero"/><path fill="#f2f2f2" d="M 322.335938 326.550781 L 321.652344 326.121094 L 321.488281 325.332031 L 321.652344 326.121094 L 320.855469 326.210938 C 320.84375 326.136719 320.800781 325.96875 320.734375 325.703125 C 320.378906 324.246094 319.292969 319.8125 318.382812 312.828125 C 317.75 307.953125 317.394531 302.941406 317.320312 297.929688 C 317.246094 292.910156 317.484375 289.109375 317.671875 286.054688 C 317.816406 283.75 317.992188 281.558594 318.164062 279.421875 C 318.621094 273.710938 319.050781 268.320312 318.730469 262.347656 C 318.660156 261.015625 318.511719 258.242188 316.890625 255.289062 C 315.949219 253.578125 314.652344 252.058594 313.039062 250.773438 L 314.042969 249.511719 C 315.824219 250.929688 317.257812 252.613281 318.304688 254.515625 C 320.101562 257.789062 320.261719 260.8125 320.339844 262.265625 C 320.667969 268.339844 320.230469 273.785156 319.769531 279.546875 C 319.601562 281.675781 319.425781 283.859375 319.28125 286.15625 C 319.09375 289.179688 318.859375 292.949219 318.929688 297.902344 C 319.003906 302.855469 319.359375 307.804688 319.980469 312.621094 C 320.878906 319.515625 321.949219 323.882812 322.300781 325.320312 C 322.488281 326.085938 322.527344 326.246094 322.335938 326.550781 Z M 322.335938 326.550781 " fill-opacity="1" fill-rule="nonzero"/><path fill="#f2f2f2" d="M 310.082031 253.332031 C 310.015625 253.332031 309.949219 253.332031 309.882812 253.328125 C 308.507812 253.253906 307.238281 252.433594 306.101562 250.886719 C 305.570312 250.160156 305.300781 249.332031 304.753906 247.675781 C 304.671875 247.421875 304.261719 246.128906 304.011719 244.347656 C 303.851562 243.183594 303.871094 242.699219 304.101562 242.269531 C 304.359375 241.792969 304.773438 241.457031 305.238281 241.234375 C 305.21875 241.078125 305.234375 240.917969 305.300781 240.757812 C 305.574219 240.085938 306.304688 240.171875 306.699219 240.214844 C 306.902344 240.242188 307.148438 240.273438 307.417969 240.261719 C 307.84375 240.238281 308.070312 240.113281 308.414062 239.925781 C 308.746094 239.742188 309.15625 239.519531 309.761719 239.394531 C 310.960938 239.144531 311.96875 239.484375 312.300781 239.597656 C 314.042969 240.175781 314.902344 241.53125 315.898438 243.101562 C 316.09375 243.414062 316.777344 244.5625 317.226562 246.132812 C 317.550781 247.265625 317.503906 247.769531 317.40625 248.140625 C 317.207031 248.910156 316.738281 249.351562 315.550781 250.324219 C 314.308594 251.34375 313.683594 251.851562 313.148438 252.164062 C 311.902344 252.882812 311.121094 253.332031 310.082031 253.332031 Z M 310.082031 253.332031 " fill-opacity="1" fill-rule="nonzero"/><path fill="#ffb6b6" d="M 156.605469 197.574219 C 159.285156 198.28125 161.820312 197.472656 162.273438 195.765625 C 162.722656 194.0625 160.914062 192.105469 158.234375 191.402344 C 157.167969 191.105469 156.042969 191.066406 154.960938 191.292969 L 143.566406 188.441406 L 142.34375 193.8125 L 153.703125 196.054688 C 154.535156 196.785156 155.53125 197.304688 156.605469 197.574219 Z M 156.605469 197.574219 " fill-opacity="1" fill-rule="nonzero"/><path fill="#2f2e41" d="M 93.996094 171.417969 C 93.996094 171.417969 91.683594 175.855469 94.890625 178.046875 C 98.097656 180.234375 124.800781 190.382812 124.800781 190.382812 L 151.320312 196.152344 L 152.277344 189.710938 L 128.132812 181.996094 L 107.996094 168.460938 Z M 93.996094 171.417969 " fill-opacity="1" fill-rule="nonzero"/><path fill="#ffb6b6" d="M 125.574219 314.6875 L 130.074219 312.664062 L 122.992188 291.503906 L 116.355469 294.488281 Z M 125.574219 314.6875 " fill-opacity="1" fill-rule="nonzero"/><path fill="#2f2e41" d="M 145.273438 316.664062 C 145.632812 317.414062 145.394531 318.277344 144.734375 318.59375 L 135.90625 322.816406 C 135.90625 322.816406 133.367188 319.738281 129.105469 319.929688 L 131.25 325.042969 L 126.699219 327.21875 L 123.40625 318.925781 C 123.40625 318.925781 120.132812 315.214844 121.609375 311.808594 C 123.089844 308.402344 121.1875 309.6875 121.1875 309.6875 L 119.804688 304.242188 L 127.074219 301.761719 L 130.855469 309.535156 L 137.902344 315.683594 L 143.960938 315.757812 C 144.5 315.765625 145.015625 316.121094 145.273438 316.664062 Z M 145.273438 316.664062 " fill-opacity="1" fill-rule="nonzero"/><path fill="#ffb6b6" d="M 36.574219 303.761719 L 40.59375 306.617188 L 55.277344 289.8125 L 49.347656 285.597656 Z M 36.574219 303.761719 " fill-opacity="1" fill-rule="nonzero"/><path fill="#2f2e41" d="M 44.824219 321.75 C 44.359375 322.441406 43.492188 322.667969 42.886719 322.261719 L 34.78125 316.78125 C 34.78125 316.78125 36.152344 313.035156 33.832031 309.457031 L 30.503906 313.890625 L 26.324219 311.066406 L 31.816406 304.035156 C 31.816406 304.035156 33.367188 299.332031 37.054688 298.886719 C 40.742188 298.441406 38.667969 297.449219 38.667969 297.449219 L 42.667969 293.503906 L 48.488281 298.515625 L 43.6875 305.714844 L 41.945312 314.898438 L 44.941406 320.160156 C 45.207031 320.628906 45.164062 321.253906 44.824219 321.75 Z M 44.824219 321.75 " fill-opacity="1" fill-rule="nonzero"/><path fill="#2f2e41" d="M 86.613281 142.648438 L 107.730469 142.648438 L 107.730469 171.644531 L 86.613281 171.644531 Z M 86.613281 142.648438 " fill-opacity="1" fill-rule="nonzero"/><path fill="#f9a826" d="M 102.988281 159.222656 L 91.523438 155.8125 L 89.351562 161.699219 L 89.042969 197.640625 C 89.042969 197.640625 105.46875 193.921875 109.1875 200.117188 L 110.429688 188.964844 C 110.429688 188.964844 114.457031 183.386719 111.046875 176.261719 C 107.636719 169.136719 104.425781 165.921875 104.425781 165.921875 L 101.75 164.488281 Z M 102.988281 159.222656 " fill-opacity="1" fill-rule="nonzero"/><path fill="#ffb6b6" d="M 89.816406 192.21875 L 88.269531 208.019531 L 108.722656 212.355469 C 108.722656 212.355469 107.171875 198.722656 109.03125 195.625 Z M 89.816406 192.21875 " fill-opacity="1" fill-rule="nonzero"/><path fill="#2f2e41" d="M 109.964844 212.046875 C 109.964844 212.046875 96.945312 202.441406 85.789062 206.160156 C 85.789062 206.160156 72.617188 214.371094 79.433594 228.621094 L 69.054688 253.253906 L 45.808594 285.785156 L 52.316406 293.53125 L 83 261.617188 L 92.917969 247.984375 L 118.019531 301.273438 L 125.769531 297.558594 L 116.160156 256.660156 L 110.429688 228.3125 Z M 109.964844 212.046875 " fill-opacity="1" fill-rule="nonzero"/><path fill="#2f2e41" d="M 79.589844 230.324219 L 64.09375 225.367188 L 78.96875 184.164062 L 77.421875 162.164062 L 90.546875 158.464844 L 97.875 190.976562 Z M 79.589844 230.324219 " fill-opacity="1" fill-rule="nonzero"/><path fill="#2f2e41" d="M 103.566406 166.777344 L 101.226562 164.4375 L 102.269531 162.277344 C 102.269531 162.277344 109.03125 169.289062 110.273438 171.148438 C 111.511719 173.007812 123.089844 219.699219 123.089844 219.699219 L 105.625 226.917969 L 109.03125 190.257812 L 110.296875 182.011719 C 110.480469 180.792969 110.273438 179.546875 109.699219 178.453125 Z M 103.566406 166.777344 " fill-opacity="1" fill-rule="nonzero"/><path fill="#ffb6b6" d="M 108.144531 146.015625 C 108.144531 146.691406 108.078125 147.359375 107.945312 148.023438 C 107.816406 148.683594 107.621094 149.324219 107.363281 149.949219 C 107.105469 150.570312 106.789062 151.164062 106.414062 151.726562 C 106.039062 152.285156 105.613281 152.804688 105.132812 153.28125 C 104.65625 153.757812 104.136719 154.183594 103.578125 154.558594 C 103.015625 154.933594 102.425781 155.25 101.800781 155.507812 C 101.175781 155.765625 100.535156 155.960938 99.871094 156.09375 C 99.210938 156.226562 98.542969 156.289062 97.867188 156.289062 C 97.191406 156.289062 96.523438 156.226562 95.863281 156.09375 C 95.203125 155.960938 94.558594 155.765625 93.933594 155.507812 C 93.3125 155.25 92.71875 154.933594 92.160156 154.558594 C 91.597656 154.183594 91.078125 153.757812 90.601562 153.28125 C 90.125 152.804688 89.699219 152.285156 89.324219 151.726562 C 88.949219 151.164062 88.632812 150.570312 88.375 149.949219 C 88.113281 149.324219 87.921875 148.683594 87.789062 148.023438 C 87.65625 147.359375 87.589844 146.691406 87.589844 146.015625 C 87.589844 145.34375 87.65625 144.675781 87.789062 144.011719 C 87.921875 143.351562 88.113281 142.710938 88.375 142.085938 C 88.632812 141.460938 88.949219 140.871094 89.324219 140.308594 C 89.699219 139.75 90.125 139.230469 90.601562 138.753906 C 91.078125 138.277344 91.597656 137.851562 92.160156 137.476562 C 92.71875 137.101562 93.3125 136.785156 93.933594 136.527344 C 94.558594 136.269531 95.203125 136.074219 95.863281 135.941406 C 96.523438 135.808594 97.191406 135.742188 97.867188 135.742188 C 98.542969 135.742188 99.210938 135.808594 99.871094 135.941406 C 100.535156 136.074219 101.175781 136.269531 101.800781 136.527344 C 102.425781 136.785156 103.015625 137.101562 103.578125 137.476562 C 104.136719 137.851562 104.65625 138.277344 105.132812 138.753906 C 105.613281 139.230469 106.039062 139.75 106.414062 140.308594 C 106.789062 140.871094 107.105469 141.460938 107.363281 142.085938 C 107.621094 142.710938 107.816406 143.351562 107.945312 144.011719 C 108.078125 144.675781 108.144531 145.34375 108.144531 146.015625 Z M 108.144531 146.015625 " fill-opacity="1" fill-rule="nonzero"/><path fill="#2f2e41" d="M 104.257812 141.816406 C 100.734375 139.46875 94.421875 148.882812 92.492188 143.09375 C 92.191406 142.191406 91.484375 146.183594 91.226562 147.582031 C 90.894531 149.355469 91.730469 150.773438 91.226562 151.089844 C 90.65625 151.449219 89.261719 149.847656 88.96875 150.085938 C 88.683594 150.320312 89.605469 152.183594 91.226562 154.347656 C 93.375 157.21875 94.722656 157.917969 96.488281 159.859375 C 98.136719 161.667969 101.179688 165.011719 100.75 167.878906 C 99.941406 173.273438 86.765625 177.441406 82.703125 173.390625 C 81.730469 172.421875 81.539062 170.226562 81.199219 165.875 C 80.691406 159.398438 81.074219 154.535156 81.199219 153.09375 C 81.714844 147.085938 81.976562 144.082031 83.203125 141.566406 C 83.988281 139.960938 86.632812 134.554688 92.480469 132.796875 C 98.757812 130.910156 106.230469 133.988281 108.269531 138.558594 C 108.859375 139.882812 108.285156 139.742188 109.023438 144.074219 C 109.890625 149.199219 110.457031 152.277344 112.78125 154.097656 C 114.917969 155.769531 116.566406 154.832031 117.292969 156.101562 C 119.175781 159.386719 110.4375 169.789062 106.765625 168.378906 C 104.554688 167.527344 104.355469 162.460938 104.511719 160.109375 C 104.839844 155.050781 107.347656 153.976562 107.265625 149.335938 C 107.246094 148.105469 107.171875 143.757812 104.257812 141.816406 Z M 104.257812 141.816406 " fill-opacity="1" fill-rule="nonzero"/><path fill="#ffb6b6" d="M 59.488281 227.667969 C 59.050781 230.402344 60.109375 232.847656 61.851562 233.125 C 63.59375 233.402344 65.355469 231.410156 65.792969 228.671875 C 65.980469 227.582031 65.90625 226.460938 65.574219 225.40625 L 67.277344 213.789062 L 61.808594 213.105469 L 60.710938 224.628906 C 60.066406 225.53125 59.644531 226.574219 59.488281 227.667969 Z M 59.488281 227.667969 " fill-opacity="1" fill-rule="nonzero"/><path fill="#2f2e41" d="M 79.28125 162.785156 C 79.28125 162.785156 74.632812 160.925781 72.773438 164.332031 C 70.914062 167.742188 63.472656 195.316406 63.472656 195.316406 L 60.375 222.269531 L 66.882812 222.582031 L 72.152344 197.792969 L 83.621094 176.417969 Z M 79.28125 162.785156 " fill-opacity="1" fill-rule="nonzero"/><path fill="#e6e6e6" d="M 375.027344 327.101562 C 375.027344 327.402344 374.785156 327.644531 374.484375 327.644531 L 0 327.644531 L 0 326.5625 L 374.484375 326.5625 C 374.785156 326.5625 375.027344 326.804688 375.027344 327.101562 Z M 375.027344 327.101562 " fill-opacity="1" fill-rule="nonzero"/></svg>