<svg xmlns="http://www.w3.org/2000/svg" xmlns:xlink="http://www.w3.org/1999/xlink" width="500" zoomAndPan="magnify" viewBox="0 0 375 374.999991" height="500" preserveAspectRatio="xMidYMid meet" version="1.0"><defs><clipPath id="fd959847fa"><path d="M 30.234375 0 L 344.484375 0 L 344.484375 375 L 30.234375 375 Z M 30.234375 0 " clip-rule="nonzero"/></clipPath></defs><g clip-path="url(#fd959847fa)"><path fill="#000000" d="M 90.855469 198.542969 C 89.472656 201.011719 90.351562 204.136719 92.816406 205.523438 C 95.285156 206.910156 98.410156 206.03125 99.792969 203.5625 C 110.179688 185.039062 134.386719 172.992188 161.65625 172.6875 C 162.011719 172.691406 162.363281 172.714844 162.71875 172.714844 C 163.074219 172.714844 163.425781 172.691406 163.78125 172.6875 C 191.050781 172.992188 215.257812 185.039062 225.644531 203.5625 C 226.585938 205.238281 228.324219 206.179688 230.117188 206.179688 C 230.964844 206.179688 231.824219 205.96875 232.617188 205.523438 C 235.085938 204.136719 235.964844 201.011719 234.578125 198.542969 C 225.882812 183.035156 209.246094 171.414062 189.171875 165.925781 C 206.210938 156.546875 217.789062 138.40625 217.789062 117.613281 C 217.789062 87.21875 193.085938 62.492188 162.71875 62.492188 C 132.363281 62.492188 107.667969 87.21875 107.667969 117.613281 C 107.667969 138.40625 119.238281 156.542969 136.273438 165.921875 C 116.195312 171.410156 99.554688 183.035156 90.855469 198.542969 Z M 117.914062 117.613281 C 117.914062 92.875 138.011719 72.75 162.71875 72.75 C 187.433594 72.75 207.542969 92.875 207.542969 117.613281 C 207.542969 141.988281 188 161.867188 163.769531 162.429688 C 163.417969 162.425781 163.070312 162.417969 162.71875 162.417969 C 162.367188 162.417969 162.019531 162.425781 161.667969 162.429688 C 137.449219 161.867188 117.914062 141.988281 117.914062 117.613281 Z M 268.589844 205.96875 C 268.25 204.652344 267.398438 203.527344 266.226562 202.839844 C 265.054688 202.148438 263.65625 201.957031 262.34375 202.296875 L 229.152344 210.933594 C 226.414062 211.644531 224.773438 214.445312 225.484375 217.183594 L 226.242188 220.109375 L 159.167969 205.917969 C 148.035156 203.570312 136.976562 207.640625 130.023438 216.53125 L 99.007812 220.898438 L 99.972656 217.1875 C 100.683594 214.445312 99.042969 211.644531 96.300781 210.933594 L 63.09375 202.296875 C 61.777344 201.953125 60.382812 202.148438 59.210938 202.839844 C 58.039062 203.527344 57.1875 204.65625 56.847656 205.972656 L 30.542969 307.347656 C 30.203125 308.664062 30.398438 310.0625 31.085938 311.238281 C 31.773438 312.410156 32.902344 313.261719 34.21875 313.601562 L 67.425781 322.21875 C 67.855469 322.328125 68.289062 322.382812 68.714844 322.382812 C 70.992188 322.382812 73.070312 320.851562 73.671875 318.542969 L 73.742188 318.257812 L 140.820312 370.90625 C 144.226562 373.582031 148.347656 375 152.628906 375 C 153.410156 375 154.199219 374.953125 154.988281 374.855469 C 160.089844 374.238281 164.636719 371.675781 167.78125 367.652344 C 169.742188 365.160156 171.023438 362.28125 171.570312 359.234375 L 173.488281 360.738281 L 173.933594 361.089844 C 182.277344 367.621094 194.371094 366.148438 200.894531 357.804688 C 203.050781 355.046875 204.332031 351.878906 204.785156 348.636719 C 212.589844 351.960938 221.964844 349.800781 227.425781 342.8125 C 230.847656 338.433594 232.070312 333.019531 231.257812 327.917969 C 236.402344 327.488281 241.363281 325.003906 244.800781 320.628906 C 246.222656 318.816406 247.289062 316.765625 247.976562 314.585938 C 248.964844 314.832031 249.945312 315.035156 250.917969 315.195312 L 251.785156 318.539062 C 252.382812 320.847656 254.460938 322.382812 256.738281 322.382812 C 257.164062 322.382812 257.597656 322.328125 258.027344 322.214844 L 291.238281 313.601562 C 292.554688 313.257812 293.679688 312.40625 294.367188 311.234375 C 295.058594 310.0625 295.253906 308.664062 294.910156 307.347656 Z M 41.75 304.960938 L 65.476562 213.511719 L 88.765625 219.570312 L 65.042969 311.003906 Z M 224.167969 315.835938 C 224.167969 315.835938 224.167969 315.832031 224.167969 315.832031 L 163.96875 268.601562 C 161.746094 266.855469 158.523438 267.246094 156.777344 269.472656 C 155.03125 271.703125 155.421875 274.925781 157.648438 276.671875 L 217.84375 323.902344 C 221.71875 326.953125 222.398438 332.601562 219.355469 336.496094 C 216.316406 340.378906 210.675781 341.054688 206.785156 338.007812 L 197.640625 330.828125 C 197.636719 330.824219 197.636719 330.824219 197.632812 330.820312 L 146.191406 290.460938 C 143.964844 288.714844 140.746094 289.105469 139 291.332031 C 137.253906 293.5625 137.644531 296.785156 139.871094 298.535156 L 191.3125 338.894531 C 195.1875 341.945312 195.867188 347.59375 192.824219 351.484375 C 189.785156 355.375 184.140625 356.0625 180.253906 353.019531 L 164.574219 340.699219 C 164.558594 340.683594 164.542969 340.671875 164.527344 340.660156 C 164.480469 340.625 164.433594 340.597656 164.390625 340.5625 L 128.417969 312.324219 C 126.191406 310.574219 122.96875 310.964844 121.222656 313.195312 C 119.476562 315.421875 119.867188 318.648438 122.09375 320.394531 L 158.355469 348.859375 C 160.140625 350.320312 161.277344 352.386719 161.558594 354.707031 C 161.847656 357.09375 161.195312 359.441406 159.71875 361.324219 C 158.253906 363.195312 156.136719 364.386719 153.753906 364.675781 C 151.367188 364.964844 149.023438 364.3125 147.148438 362.835938 L 76.554688 307.429688 L 96.21875 231.648438 L 121.566406 228.078125 L 103.382812 253.046875 C 102.953125 253.636719 102.582031 254.089844 102.253906 254.488281 C 101.328125 255.621094 99.929688 257.332031 100.21875 259.867188 C 100.511719 262.457031 102.234375 263.789062 103.894531 265.078125 L 104.636719 265.65625 C 110.339844 270.109375 125.246094 279.550781 140.511719 271.082031 C 149.992188 265.839844 156.441406 258.367188 161.148438 252.914062 C 162.242188 251.644531 163.191406 250.550781 164.03125 249.652344 C 164.191406 249.480469 164.34375 249.3125 164.488281 249.152344 L 238.515625 310.164062 C 238.328125 311.433594 237.84375 312.890625 236.742188 314.292969 C 233.6875 318.1875 228.042969 318.882812 224.167969 315.835938 Z M 246.351562 303.332031 L 170.746094 241.023438 C 170.632812 240.929688 170.511719 240.839844 170.390625 240.757812 C 169.597656 240.210938 168.988281 239.757812 168.511719 239.402344 C 165.75 237.34375 162.097656 235.609375 158.339844 240.507812 C 157.917969 241.058594 157.390625 241.742188 156.550781 242.640625 C 155.570312 243.691406 154.511719 244.914062 153.394531 246.210938 C 149.191406 251.078125 143.4375 257.746094 135.550781 262.109375 C 126.675781 267.03125 117.457031 262.328125 112.121094 258.457031 L 137.652344 223.398438 C 142.214844 217.136719 149.46875 214.351562 157.054688 215.949219 L 229.121094 231.203125 L 247.992188 303.917969 C 247.449219 303.738281 246.90625 303.546875 246.351562 303.332031 Z M 260.417969 311.003906 L 236.6875 219.570312 L 259.960938 213.515625 L 283.703125 304.960938 Z M 286.925781 48.207031 C 279.28125 48.207031 271.984375 49.722656 265.304688 52.441406 C 241.480469 19.527344 203.453125 0 162.71875 0 C 92.914062 0 36.125 56.839844 36.125 126.707031 C 36.125 150.457031 42.726562 173.609375 55.214844 193.65625 C 56.1875 195.214844 57.859375 196.070312 59.570312 196.070312 C 60.496094 196.070312 61.429688 195.820312 62.273438 195.292969 C 64.675781 193.792969 65.410156 190.628906 63.910156 188.226562 C 52.4375 169.8125 46.371094 148.535156 46.371094 126.707031 C 46.371094 62.496094 98.5625 10.253906 162.714844 10.253906 C 199.632812 10.253906 234.128906 27.714844 256.078125 57.214844 C 240.035156 67.449219 229.363281 85.40625 229.363281 105.820312 C 229.363281 133.015625 248.292969 155.855469 273.65625 161.871094 C 270.753906 171.0625 266.699219 179.914062 261.539062 188.234375 C 260.046875 190.640625 260.785156 193.804688 263.1875 195.296875 C 264.027344 195.820312 264.960938 196.070312 265.886719 196.070312 C 267.597656 196.070312 269.273438 195.210938 270.242188 193.644531 C 276.15625 184.109375 280.75 173.941406 283.933594 163.355469 C 284.925781 163.40625 285.921875 163.433594 286.921875 163.433594 C 318.660156 163.433594 344.484375 137.585938 344.484375 105.820312 C 344.484375 74.054688 318.664062 48.207031 286.925781 48.207031 Z M 286.925781 153.175781 C 260.835938 153.175781 239.613281 131.933594 239.613281 105.820312 C 239.613281 79.707031 260.835938 58.464844 286.925781 58.464844 C 313.015625 58.464844 334.238281 79.707031 334.238281 105.820312 C 334.238281 131.933594 313.015625 153.175781 286.925781 153.175781 Z M 302.128906 89.230469 C 304.960938 89.230469 307.253906 86.9375 307.253906 84.105469 C 307.253906 81.273438 304.957031 78.976562 302.128906 78.976562 L 292.050781 78.976562 L 292.050781 75.054688 C 292.050781 72.21875 289.753906 69.925781 286.925781 69.925781 C 284.09375 69.925781 281.800781 72.222656 281.800781 75.054688 L 281.800781 79.167969 C 273.1875 80.355469 266.578125 86.988281 266.578125 94.960938 C 266.578125 102.9375 273.1875 109.566406 281.800781 110.757812 L 281.800781 122.410156 L 271.90625 122.410156 C 269.078125 122.410156 266.785156 124.703125 266.785156 127.535156 C 266.785156 130.367188 269.078125 132.664062 271.90625 132.664062 L 281.800781 132.664062 L 281.800781 136.609375 C 281.800781 139.441406 284.097656 141.738281 286.925781 141.738281 C 289.753906 141.738281 292.050781 139.441406 292.050781 136.609375 L 292.050781 132.46875 C 300.652344 131.273438 307.253906 124.648438 307.253906 116.679688 C 307.253906 108.710938 300.652344 102.085938 292.050781 100.886719 L 292.050781 89.230469 Z M 276.824219 94.960938 C 276.824219 92.574219 278.921875 90.480469 281.800781 89.632812 L 281.800781 100.289062 C 278.921875 99.445312 276.824219 97.347656 276.824219 94.960938 Z M 297.003906 116.679688 C 297.003906 119.058594 294.917969 121.152344 292.050781 122 L 292.050781 111.355469 C 294.914062 112.207031 297.003906 114.296875 297.003906 116.679688 Z M 297.003906 116.679688 " fill-opacity="1" fill-rule="nonzero"/></g></svg>