<svg xmlns="http://www.w3.org/2000/svg" xmlns:xlink="http://www.w3.org/1999/xlink" width="500" zoomAndPan="magnify" viewBox="0 0 375 374.999991" height="500" preserveAspectRatio="xMidYMid meet" version="1.0"><defs><clipPath id="99fbf34e2c"><path d="M 235 49 L 343.125 49 L 343.125 157 L 235 157 Z M 235 49 " clip-rule="nonzero"/></clipPath><clipPath id="d3bc2e75da"><path d="M 31.875 206 L 93 206 L 93 320 L 31.875 320 Z M 31.875 206 " clip-rule="nonzero"/></clipPath></defs><path fill="#8399fe" d="M 162.175781 248.796875 C 230.679688 248.796875 286.5625 192.910156 286.5625 124.386719 C 286.5625 55.886719 230.679688 0 162.175781 0 C 93.652344 0 37.765625 55.886719 37.765625 124.386719 C 37.765625 192.910156 93.652344 248.796875 162.175781 248.796875 Z M 162.175781 248.796875 " fill-opacity="1" fill-rule="evenodd"/><path fill="#728bf1" d="M 162.175781 0 C 166.402344 0 170.585938 0.210938 174.730469 0.636719 C 111.917969 6.925781 62.875 59.941406 62.875 124.386719 C 62.875 188.855469 111.917969 241.871094 174.730469 248.160156 C 170.585938 248.585938 166.402344 248.796875 162.175781 248.796875 C 93.460938 248.796875 37.765625 193.101562 37.765625 124.386719 C 37.765625 55.695312 93.460938 0 162.175781 0 Z M 162.175781 0 " fill-opacity="1" fill-rule="evenodd"/><path fill="#00d696" d="M 236.921875 223.816406 C 216.105469 239.492188 190.234375 248.796875 162.175781 248.796875 C 134.117188 248.796875 108.222656 239.492188 87.40625 223.816406 C 87.386719 223.222656 87.363281 222.628906 87.363281 222.011719 C 87.363281 191.167969 120.863281 166.167969 162.175781 166.167969 C 203.488281 166.167969 236.964844 191.167969 236.964844 222.011719 C 236.964844 222.628906 236.964844 223.222656 236.921875 223.816406 Z M 236.921875 223.816406 " fill-opacity="1" fill-rule="evenodd"/><path fill="#ffe0cc" d="M 162.175781 166.210938 C 190.339844 166.210938 213.304688 143.25 213.304688 115.085938 C 213.304688 86.917969 190.339844 63.9375 162.175781 63.9375 C 134.011719 63.9375 111.027344 86.917969 111.027344 115.085938 C 111.027344 143.25 134.011719 166.210938 162.175781 166.210938 Z M 162.175781 166.210938 " fill-opacity="1" fill-rule="evenodd"/><g clip-path="url(#99fbf34e2c)"><path fill="#ffca28" d="M 289.347656 156.714844 C 318.914062 156.714844 343.042969 132.609375 343.042969 103.019531 C 343.042969 73.449219 318.914062 49.320312 289.347656 49.320312 C 259.777344 49.320312 235.648438 73.449219 235.648438 103.019531 C 235.648438 132.609375 259.777344 156.714844 289.347656 156.714844 Z M 289.347656 156.714844 " fill-opacity="1" fill-rule="evenodd"/></g><path fill="#fcb73e" d="M 294.273438 156.503906 C 266.9375 154.019531 245.523438 131.015625 245.523438 103.019531 C 245.523438 75.042969 266.9375 52.039062 294.273438 49.554688 C 292.660156 49.40625 291.003906 49.320312 289.347656 49.320312 C 259.695312 49.320312 235.648438 73.367188 235.648438 103.019531 C 235.648438 132.691406 259.691406 156.714844 289.347656 156.714844 C 291.003906 156.714844 292.660156 156.652344 294.273438 156.503906 Z M 294.273438 156.503906 " fill-opacity="1" fill-rule="evenodd"/><path fill="#ffa000" d="M 294.59375 97.96875 L 294.59375 86.070312 L 304.9375 86.070312 C 307.835938 86.070312 310.183594 83.71875 310.183594 80.824219 C 310.183594 77.925781 307.835938 75.578125 304.9375 75.578125 L 294.59375 75.578125 L 294.59375 71.539062 C 294.59375 68.644531 292.242188 66.292969 289.347656 66.292969 C 286.449219 66.292969 284.097656 68.644531 284.097656 71.539062 L 284.097656 75.773438 C 275.289062 76.992188 268.527344 83.773438 268.527344 91.933594 C 268.527344 100.082031 275.292969 106.851562 284.097656 108.070312 L 284.097656 119.992188 L 273.988281 119.992188 C 271.089844 119.992188 268.742188 122.339844 268.742188 125.238281 C 268.742188 128.136719 271.089844 130.484375 273.988281 130.484375 L 284.097656 130.484375 L 284.097656 134.519531 C 284.097656 137.417969 286.449219 139.765625 289.347656 139.765625 C 292.242188 139.765625 294.59375 137.417969 294.59375 134.519531 L 294.59375 130.289062 C 303.414062 129.070312 310.183594 122.289062 310.183594 114.128906 C 310.183594 105.96875 303.414062 99.1875 294.59375 97.96875 Z M 279.023438 91.929688 C 279.023438 89.492188 281.164062 87.347656 284.097656 86.480469 L 284.097656 97.363281 C 281.164062 96.496094 279.023438 94.363281 279.023438 91.929688 Z M 294.59375 119.578125 L 294.59375 108.691406 C 297.511719 109.574219 299.691406 111.738281 299.691406 114.128906 C 299.691406 116.570312 297.539062 118.714844 294.59375 119.578125 Z M 294.59375 119.578125 " fill-opacity="1" fill-rule="nonzero"/><path fill="#3bbf61" d="M 102 233.289062 C 96.902344 230.464844 92.039062 227.300781 87.40625 223.816406 C 87.386719 223.222656 87.363281 222.628906 87.363281 222.011719 C 87.363281 191.171875 120.863281 166.167969 162.175781 166.167969 C 167.210938 166.167969 172.117188 166.550781 176.875 167.253906 C 134.691406 172.921875 102.59375 200.261719 102 233.289062 Z M 102 233.289062 " fill-opacity="1" fill-rule="evenodd"/><path fill="#ffb89e" d="M 194.675781 337.351562 L 204.042969 344.699219 C 210.285156 349.605469 219.398438 348.5 224.285156 342.257812 C 229.191406 336.011719 228.085938 326.898438 221.84375 322.015625 C 228.085938 326.898438 237.199219 325.796875 242.085938 319.570312 C 246.96875 313.328125 245.886719 304.214844 239.640625 299.328125 L 182.101562 254.210938 L 140.785156 219.886719 L 78.464844 228.636719 L 61.175781 300.453125 L 69.566406 312.539062 L 142.996094 370.125 C 149.242188 375.011719 158.332031 373.90625 163.238281 367.660156 C 168.125 361.414062 167.019531 352.324219 160.773438 347.417969 L 176.894531 360.054688 C 183.121094 364.941406 192.230469 363.835938 197.140625 357.59375 C 202.023438 351.371094 200.917969 342.257812 194.675781 337.351562 Z M 221.84375 322.015625 L 158.332031 272.203125 Z M 221.84375 322.015625 " fill-opacity="1" fill-rule="evenodd"/><path fill="#f2a183" d="M 199.5625 352.921875 L 137.726562 304.492188 C 135.730469 302.917969 135.371094 300.007812 136.941406 297.992188 C 138.511719 295.972656 141.421875 295.613281 143.441406 297.183594 L 204.785156 345.253906 C 204.53125 345.082031 204.296875 344.894531 204.042969 344.703125 L 194.675781 337.351562 C 199.476562 341.132812 201.238281 347.375 199.5625 352.921875 Z M 199.5625 352.921875 " fill-opacity="1" fill-rule="nonzero"/><path fill="#f2a183" d="M 117.167969 324.988281 C 115.148438 323.417969 114.789062 320.507812 116.359375 318.488281 C 117.929688 316.472656 120.839844 316.109375 122.859375 317.679688 L 175.960938 359.3125 L 160.773438 347.417969 C 165.597656 351.199219 167.359375 357.464844 165.660156 363.011719 Z M 117.167969 324.988281 " fill-opacity="1" fill-rule="nonzero"/><g clip-path="url(#d3bc2e75da)"><path fill="#5b5e8b" d="M 58.816406 206.824219 L 31.882812 310.523438 L 65.890625 319.359375 L 92.824219 215.640625 Z M 58.816406 206.824219 " fill-opacity="1" fill-rule="evenodd"/></g><path fill="#f2a183" d="M 226.726562 337.5625 L 159.117188 284.523438 C 157.101562 282.953125 156.738281 280.042969 158.3125 278.023438 C 159.753906 276.199219 162.324219 275.730469 164.277344 276.878906 L 221.84375 322.015625 L 164.277344 276.878906 C 164.46875 276.984375 164.640625 277.109375 164.808594 277.238281 L 222.585938 322.566406 C 222.332031 322.394531 222.097656 322.207031 221.84375 322.015625 C 226.640625 325.773438 228.40625 332.039062 226.726562 337.5625 Z M 226.726562 337.5625 " fill-opacity="1" fill-rule="nonzero"/><path fill="#f2a183" d="M 239.386719 227.894531 L 157.4375 210.5625 C 147.667969 208.503906 138.152344 212.15625 132.269531 220.226562 L 105.652344 256.742188 C 102.890625 260.523438 102.277344 259.542969 105.929688 262.414062 C 111.347656 266.640625 124.113281 274.582031 136.878906 267.53125 C 148.007812 261.371094 154.996094 251.578125 159.667969 246.609375 C 164.066406 241.914062 161.6875 241.703125 167.0625 245.398438 L 245.101562 309.695312 C 251.515625 312.265625 257.824219 313.242188 263.960938 311.796875 Z M 239.386719 227.894531 " fill-opacity="1" fill-rule="evenodd"/><path fill="#5b5e8b" d="M 265.515625 206.824219 L 292.449219 310.523438 L 258.441406 319.359375 L 231.507812 215.640625 Z M 265.515625 206.824219 " fill-opacity="1" fill-rule="evenodd"/></svg>