<svg xmlns="http://www.w3.org/2000/svg" xmlns:xlink="http://www.w3.org/1999/xlink" width="500" zoomAndPan="magnify" viewBox="0 0 375 374.999991" height="500" preserveAspectRatio="xMidYMid meet" version="1.0"><defs><clipPath id="558fa70fec"><path d="M 103 324 L 255 324 L 255 374.25 L 103 374.25 Z M 103 324 " clip-rule="nonzero"/></clipPath></defs><path fill="#78e5cf" d="M 45.753906 163.203125 C 38.277344 168.667969 34.25 174.597656 34.25 180.738281 C 34.25 186.875 38.277344 192.804688 45.753906 198.269531 C 53.222656 203.726562 64.058594 208.660156 77.488281 212.8125 C 104.339844 221.113281 141.464844 226.253906 182.492188 226.253906 C 223.515625 226.253906 260.640625 221.113281 287.492188 212.8125 C 300.921875 208.660156 311.757812 203.726562 319.226562 198.269531 C 326.703125 192.804688 330.730469 186.875 330.730469 180.738281 C 330.730469 174.597656 326.703125 168.667969 319.226562 163.203125 C 311.757812 157.746094 300.921875 152.8125 287.492188 148.660156 C 260.640625 140.359375 223.515625 135.21875 182.492188 135.21875 C 141.464844 135.21875 104.339844 140.359375 77.488281 148.660156 C 64.058594 152.8125 53.222656 157.746094 45.753906 163.203125 Z M 77.230469 147.820312 C 104.1875 139.488281 141.402344 134.339844 182.492188 134.339844 C 223.578125 134.339844 260.792969 139.488281 287.75 147.820312 C 301.226562 151.984375 312.164062 156.953125 319.742188 162.492188 C 327.3125 168.023438 331.609375 174.183594 331.609375 180.738281 C 331.609375 187.289062 327.3125 193.449219 319.742188 198.980469 C 312.164062 204.515625 301.226562 209.488281 287.75 213.652344 C 260.792969 221.984375 223.578125 227.132812 182.492188 227.132812 C 141.402344 227.132812 104.1875 221.984375 77.230469 213.652344 C 63.753906 209.488281 52.8125 204.515625 45.238281 198.980469 C 37.667969 193.449219 33.371094 187.289062 33.371094 180.738281 C 33.371094 174.183594 37.667969 168.023438 45.238281 162.492188 C 52.8125 156.953125 63.753906 151.984375 77.230469 147.820312 Z M 77.230469 147.820312 " fill-opacity="1" fill-rule="evenodd"/><path fill="#78e5cf" d="M 62.464844 229.925781 C 56.074219 234.65625 52.644531 239.78125 52.644531 245.078125 C 52.644531 250.371094 56.074219 255.496094 62.464844 260.226562 C 68.847656 264.949219 78.109375 269.222656 89.597656 272.820312 C 112.566406 280.011719 144.324219 284.464844 179.425781 284.464844 C 214.523438 284.464844 246.28125 280.011719 269.25 272.820312 C 280.738281 269.222656 290.003906 264.949219 296.386719 260.226562 C 302.777344 255.496094 306.203125 250.371094 306.203125 245.078125 C 306.203125 239.78125 302.777344 234.65625 296.386719 229.925781 C 290.003906 225.203125 280.738281 220.929688 269.25 217.332031 C 246.28125 210.140625 214.523438 205.6875 179.425781 205.6875 C 144.324219 205.6875 112.566406 210.140625 89.597656 217.332031 C 78.109375 220.929688 68.847656 225.203125 62.464844 229.925781 Z M 89.335938 216.492188 C 112.410156 209.269531 144.261719 204.808594 179.425781 204.808594 C 214.585938 204.808594 246.4375 209.269531 269.511719 216.492188 C 281.050781 220.105469 290.414062 224.414062 296.90625 229.21875 C 303.390625 234.019531 307.082031 239.371094 307.082031 245.078125 C 307.082031 250.78125 303.390625 256.132812 296.90625 260.933594 C 290.414062 265.738281 281.050781 270.046875 269.511719 273.660156 C 246.4375 280.882812 214.585938 285.34375 179.425781 285.34375 C 144.261719 285.34375 112.410156 280.882812 89.335938 273.660156 C 77.800781 270.046875 68.433594 265.738281 61.941406 260.933594 C 55.457031 256.132812 51.765625 250.78125 51.765625 245.078125 C 51.765625 239.371094 55.457031 234.019531 61.941406 229.21875 C 68.433594 224.414062 77.800781 220.105469 89.335938 216.492188 Z M 89.335938 216.492188 " fill-opacity="1" fill-rule="evenodd"/><path fill="#78e5cf" d="M 88.125 289.585938 C 82.976562 293.402344 80.234375 297.519531 80.234375 301.757812 C 80.234375 305.992188 82.976562 310.113281 88.125 313.925781 C 93.269531 317.734375 100.738281 321.183594 110.003906 324.085938 C 128.535156 329.890625 154.164062 333.488281 182.492188 333.488281 C 210.816406 333.488281 236.445312 329.890625 254.976562 324.085938 C 264.242188 321.183594 271.710938 317.734375 276.855469 313.925781 C 282.003906 310.113281 284.746094 305.992188 284.746094 301.757812 C 284.746094 297.519531 282.003906 293.402344 276.855469 289.585938 C 271.710938 285.78125 264.242188 282.332031 254.976562 279.425781 C 236.445312 273.625 210.816406 270.027344 182.492188 270.027344 C 154.164062 270.027344 128.535156 273.625 110.003906 279.425781 C 100.738281 282.332031 93.269531 285.78125 88.125 289.585938 Z M 109.742188 278.589844 C 128.378906 272.75 154.097656 269.148438 182.492188 269.148438 C 210.878906 269.148438 236.601562 272.75 255.238281 278.589844 C 264.554688 281.507812 272.125 284.992188 277.378906 288.882812 C 282.621094 292.765625 285.625 297.109375 285.625 301.757812 C 285.625 306.402344 282.621094 310.75 277.378906 314.632812 C 272.125 318.519531 264.554688 322.003906 255.238281 324.921875 C 236.601562 330.761719 210.878906 334.367188 182.492188 334.367188 C 154.097656 334.367188 128.378906 330.761719 109.742188 324.921875 C 100.425781 322.003906 92.855469 318.519531 87.601562 314.632812 C 82.359375 310.75 79.355469 306.402344 79.355469 301.757812 C 79.355469 297.109375 82.359375 292.765625 87.601562 288.882812 C 92.855469 284.992188 100.425781 281.507812 109.742188 278.589844 Z M 109.742188 278.589844 " fill-opacity="1" fill-rule="evenodd"/><g clip-path="url(#558fa70fec)"><path fill="#78e5cf" d="M 110.492188 340.054688 C 106.738281 342.949219 104.757812 346.058594 104.757812 349.246094 C 104.757812 352.433594 106.738281 355.542969 110.492188 358.4375 C 114.234375 361.328125 119.683594 363.949219 126.453125 366.160156 C 139.992188 370.578125 158.71875 373.316406 179.425781 373.316406 C 200.132812 373.316406 218.859375 370.578125 232.394531 366.160156 C 239.167969 363.949219 244.613281 361.328125 248.359375 358.4375 C 252.113281 355.542969 254.09375 352.433594 254.09375 349.246094 C 254.09375 346.058594 252.113281 342.949219 248.359375 340.054688 C 244.613281 337.164062 239.167969 334.542969 232.394531 332.332031 C 218.859375 327.914062 200.132812 325.175781 179.425781 325.175781 C 158.71875 325.175781 139.992188 327.914062 126.453125 332.332031 C 119.683594 334.542969 114.234375 337.164062 110.492188 340.054688 Z M 126.183594 331.496094 C 139.828125 327.042969 158.652344 324.296875 179.425781 324.296875 C 200.199219 324.296875 219.023438 327.042969 232.667969 331.496094 C 239.492188 333.722656 245.042969 336.382812 248.898438 339.355469 C 252.746094 342.328125 254.972656 345.664062 254.972656 349.246094 C 254.972656 352.824219 252.746094 356.164062 248.898438 359.132812 C 245.042969 362.109375 239.492188 364.769531 232.667969 366.996094 C 219.023438 371.449219 200.199219 374.195312 179.425781 374.195312 C 158.652344 374.195312 139.828125 371.449219 126.183594 366.996094 C 119.359375 364.769531 113.808594 362.109375 109.953125 359.132812 C 106.105469 356.164062 103.878906 352.824219 103.878906 349.246094 C 103.878906 345.664062 106.105469 342.328125 109.953125 339.355469 C 113.808594 336.382812 119.359375 333.722656 126.183594 331.496094 Z M 126.183594 331.496094 " fill-opacity="1" fill-rule="evenodd"/></g><path fill="#ffffff" d="M 330.109375 97.53125 L 350.890625 24.835938 C 322.117188 13.332031 264.566406 0.0742188 229.398438 0.0742188 L 223.003906 69.570312 C 248.582031 66.378906 302.398438 87.414062 330.109375 97.53125 Z M 330.109375 97.53125 " fill-opacity="1" fill-rule="nonzero"/><path fill="#78e5cf" d="M 258.972656 40.015625 L 239.789062 42.410156 C 241.066406 25.15625 254.175781 20.84375 260.570312 20.84375 Z M 258.972656 40.015625 " fill-opacity="1" fill-rule="nonzero"/><path fill="#78e5cf" d="M 275.757812 48.003906 C 264.566406 69.570312 242.984375 58.386719 241.386719 44.007812 L 258.972656 42.410156 Z M 275.757812 48.003906 " fill-opacity="1" fill-rule="nonzero"/><path fill="#78e5cf" d="M 262.96875 20.84375 C 267.445312 21.480469 278.953125 27.234375 278.152344 46.40625 L 261.371094 40.015625 Z M 262.96875 20.84375 " fill-opacity="1" fill-rule="nonzero"/><path fill="#78e5cf" d="M 264.648438 10.867188 C 274.332031 12.71875 283.34375 15.363281 288.691406 17.234375 L 289.042969 17.355469 L 278.484375 76.617188 L 277.957031 76.355469 C 273.542969 74.148438 264.539062 71.828125 255.023438 69.824219 C 245.53125 67.820312 235.585938 66.144531 229.335938 65.214844 L 228.90625 65.148438 L 236.199219 9.277344 L 236.523438 9.226562 C 244.59375 7.933594 254.980469 9.011719 264.648438 10.867188 Z M 236.984375 10.042969 L 229.890625 64.410156 C 236.175781 65.351562 245.902344 67 255.207031 68.964844 C 264.347656 70.890625 273.132812 73.128906 277.824219 75.316406 L 288.046875 17.9375 C 282.699219 16.089844 273.910156 13.535156 264.484375 11.726562 C 254.96875 9.90625 244.855469 8.855469 236.984375 10.042969 Z M 236.984375 10.042969 " fill-opacity="1" fill-rule="evenodd"/><path fill="#78e5cf" d="M 312.664062 27.515625 C 306.292969 25.1875 300.378906 23.859375 296.890625 23.351562 L 297.019531 22.480469 C 300.566406 23 306.535156 24.34375 312.964844 26.691406 C 319.390625 29.039062 326.300781 32.398438 331.699219 36.964844 L 331.132812 37.636719 C 325.839844 33.160156 319.039062 29.84375 312.664062 27.515625 Z M 311.257812 35.734375 C 304.882812 33.410156 298.972656 32.082031 295.484375 31.570312 L 295.613281 30.703125 C 299.160156 31.21875 305.128906 32.5625 311.558594 34.910156 C 317.984375 37.257812 324.894531 40.617188 330.292969 45.1875 L 329.726562 45.855469 C 324.4375 41.382812 317.632812 38.0625 311.257812 35.734375 Z M 309.851562 46.011719 C 303.480469 43.683594 297.566406 42.355469 294.078125 41.847656 L 294.207031 40.976562 C 297.75 41.496094 303.722656 42.839844 310.152344 45.1875 C 316.578125 47.53125 323.488281 50.894531 328.886719 55.460938 L 328.316406 56.132812 C 323.027344 51.65625 316.222656 48.339844 309.851562 46.011719 Z M 309.148438 55.257812 C 302.773438 52.929688 296.863281 51.601562 293.375 51.09375 L 293.503906 50.226562 C 297.050781 50.742188 303.019531 52.085938 309.449219 54.433594 C 315.875 56.78125 322.785156 60.140625 328.183594 64.707031 L 327.617188 65.378906 C 322.324219 60.90625 315.523438 57.585938 309.148438 55.257812 Z M 306.332031 63.476562 C 299.960938 61.152344 294.046875 59.824219 290.5625 59.3125 L 290.6875 58.445312 C 294.234375 58.960938 300.207031 60.304688 306.636719 62.652344 C 313.058594 65 319.96875 68.359375 325.371094 72.929688 L 324.800781 73.597656 C 319.511719 69.125 312.707031 65.804688 306.332031 63.476562 Z M 304.925781 73.753906 C 298.554688 71.425781 292.640625 70.097656 289.15625 69.589844 L 289.28125 68.71875 C 292.828125 69.238281 298.800781 70.582031 305.230469 72.929688 C 311.652344 75.277344 318.5625 78.636719 323.964844 83.203125 L 323.394531 83.875 C 318.105469 79.398438 311.300781 76.082031 304.925781 73.753906 Z M 304.925781 73.753906 " fill-opacity="1" fill-rule="evenodd"/><path fill="#f7aa8c" d="M 151.371094 293.523438 L 149.570312 304.523438 C 152.507812 307.167969 158.984375 309.171875 164.980469 308.554688 L 166.582031 295.921875 Z M 151.371094 293.523438 " fill-opacity="1" fill-rule="nonzero"/><path fill="#8c1a00" d="M 166.179688 311.125 C 157.855469 313.046875 152.171875 309.523438 148.96875 307.527344 L 149.570312 304.523438 C 152.507812 307.167969 158.984375 309.171875 164.980469 308.554688 C 165.519531 308.5 166.054688 308.425781 166.582031 308.324219 C 169.382812 307.800781 167.382812 310.847656 166.179688 311.125 Z M 166.179688 311.125 " fill-opacity="1" fill-rule="nonzero"/><path fill="#8c1a00" d="M 169.382812 338.332031 L 166.179688 311.125 C 157.855469 313.046875 152.171875 309.523438 148.96875 307.527344 L 146.566406 319.128906 Z M 169.382812 338.332031 " fill-opacity="1" fill-rule="nonzero"/><path fill="#f7aa8c" d="M 127.75 177.507812 L 141.269531 177.699219 L 143.414062 186.816406 L 130.628906 189.742188 Z M 127.75 177.507812 " fill-opacity="1" fill-rule="nonzero"/><path fill="#8c1a00" d="M 109.484375 170.921875 L 138.648438 166.765625 L 139.046875 166.707031 L 138.996094 166.339844 L 141.5 178.589844 L 128.558594 182.5 C 125.21875 182.695312 125.90625 180.769531 126.667969 179.78125 C 124.109375 179.074219 118.273438 175.761719 113.296875 173.042969 C 111.839844 172.246094 110.523438 171.511719 109.484375 170.921875 Z M 109.484375 170.921875 " fill-opacity="1" fill-rule="nonzero"/><path fill="#f7aa8c" d="M 230.816406 66.203125 C 231.847656 72.179688 233.449219 83.796875 228.910156 85.691406 C 227.386719 86.808594 225.902344 87.933594 225.902344 95.398438 L 227.21875 95.398438 C 229.585938 96.21875 231.460938 105.824219 225.902344 112.972656 C 219.195312 121.589844 204.21875 104.917969 198.648438 96.277344 L 210.15625 94.082031 C 210.15625 88.371094 210.453125 86.34375 210.15625 83.335938 C 207.652344 81.867188 204.984375 76.875 206.542969 74.445312 C 208.257812 71.765625 210.894531 71.847656 211.917969 73.671875 L 213.425781 70.742188 C 214.992188 65.765625 219.867188 60.386719 222.027344 57.417969 C 222.027344 58.835938 223.4375 57.128906 224.664062 57.859375 C 226.195312 58.769531 227.285156 59.390625 227.285156 59.390625 C 228.277344 60.433594 230.816406 66.203125 230.816406 66.203125 Z M 230.816406 66.203125 " fill-opacity="1" fill-rule="nonzero"/><path fill="#8c1a00" d="M 233.453125 65.324219 C 235.570312 77.65625 231.558594 87.347656 228.226562 91.460938 C 227.671875 92.144531 227.117188 91.625 227.542969 90.855469 C 228.746094 88.679688 229.609375 86.636719 230.214844 84.710938 C 232.472656 82.007812 232.125 75.429688 231.425781 70.15625 C 231.078125 68.109375 229.234375 63.042969 224.664062 59.175781 C 222.675781 60.878906 219.21875 62.398438 216.3125 66.8125 C 215.679688 67.839844 214.769531 78.15625 216.476562 90.078125 C 216.554688 90.601562 215.753906 90.824219 215.558594 90.332031 C 212.679688 83.113281 212.355469 80.960938 212.355469 77.1875 C 211.769531 75.285156 210.15625 71.914062 208.398438 73.671875 C 206.203125 75.867188 207.082031 82.019531 211.039062 82.898438 L 210.597656 85.535156 C 204.445312 77.625 199.859375 72.921875 204.003906 65.324219 C 199.796875 65.324219 204.847656 76.1875 195.664062 88.667969 C 195.199219 89.304688 194.226562 89.003906 194.171875 88.222656 C 192.386719 62.445312 197.089844 42.515625 212.3125 56.539062 C 216.617188 54.105469 221.160156 53.988281 224.222656 56.539062 C 229.9375 53.902344 232.777344 61.371094 233.453125 65.324219 Z M 233.453125 65.324219 " fill-opacity="1" fill-rule="nonzero"/><path fill="#025847" d="M 218.429688 163.929688 C 204.800781 184.644531 192.496094 181.503906 164.804688 158.21875 C 163.046875 160.414062 160.410156 163.492188 160.410156 185.015625 C 158.894531 190.476562 157.050781 197.164062 155.09375 204.34375 L 149.882812 194.296875 C 149.722656 193.984375 149.40625 193.011719 149.445312 191.605469 C 149.480469 190.199219 148.128906 189.886719 147.246094 189.410156 C 147.113281 185.503906 144.765625 182.773438 143.707031 182.382812 C 136.671875 184.722656 128.234375 189.144531 126.125 195.121094 C 134.390625 235.6875 139.226562 260.835938 152.730469 267.277344 C 151.546875 275.039062 151.746094 272.726562 150.296875 281.222656 C 146.378906 282.527344 147.214844 286.425781 148.511719 292.484375 L 148.546875 292.644531 C 148.960938 294.566406 143.765625 299.234375 147.222656 300.992188 C 147.222656 300.992188 153.019531 307.492188 168.785156 305.382812 C 197.355469 233.65625 212.691406 200.632812 218.429688 163.929688 Z M 218.429688 163.929688 " fill-opacity="1" fill-rule="nonzero"/><path fill="#bc8e05" d="M 155.152344 204.132812 C 155.265625 204.164062 155.335938 204.285156 155.304688 204.402344 C 152.722656 213.882812 149.933594 224.21875 147.433594 233.714844 L 147.007812 233.601562 C 149.511719 224.105469 152.296875 213.769531 154.878906 204.289062 C 154.914062 204.171875 155.03125 204.101562 155.152344 204.132812 Z M 155.152344 204.132812 " fill-opacity="1" fill-rule="evenodd"/><path fill="#bc8e05" d="M 211.125 177.847656 C 211.203125 177.941406 211.191406 178.078125 211.097656 178.15625 C 210.617188 178.550781 210.144531 178.933594 209.683594 179.308594 C 205.507812 182.679688 202.136719 185.410156 200.179688 191.671875 C 200.03125 192.144531 199.800781 192.90625 199.5 193.917969 C 197.5625 200.386719 192.582031 217.015625 186.160156 232.980469 C 182.449219 242.210938 178.253906 251.234375 173.882812 257.949219 C 171.695312 261.308594 169.460938 264.097656 167.210938 266.054688 C 164.964844 268.007812 162.679688 269.140625 160.410156 269.140625 C 157.53125 269.140625 154.960938 268.582031 152.640625 267.472656 L 152.828125 267.078125 C 155.085938 268.15625 157.589844 268.703125 160.410156 268.703125 C 162.53125 268.703125 164.714844 267.640625 166.921875 265.722656 C 169.128906 263.804688 171.339844 261.050781 173.515625 257.710938 C 177.863281 251.027344 182.046875 242.039062 185.753906 232.816406 C 192.164062 216.871094 197.136719 200.269531 199.078125 193.796875 C 199.378906 192.78125 199.609375 192.015625 199.757812 191.539062 C 201.757812 185.148438 205.230469 182.339844 209.40625 178.964844 C 209.867188 178.59375 210.339844 178.210938 210.816406 177.820312 C 210.910156 177.742188 211.050781 177.753906 211.125 177.847656 Z M 211.125 177.847656 " fill-opacity="1" fill-rule="evenodd"/><path fill="#ffc928" d="M 234.339844 119.550781 C 234.996094 125.578125 234.816406 132.207031 233.371094 135.816406 C 228.097656 148.992188 225.550781 144.011719 218.425781 163.929688 C 204.800781 184.644531 192.496094 181.503906 164.800781 158.21875 C 168.488281 154.324219 170.378906 154.308594 171.394531 152.070312 C 172.683594 149.234375 176.183594 143.898438 175.535156 136.0625 L 160.40625 153.386719 C 152.285156 160.945312 126.90625 152.636719 109.445312 145.480469 C 103.289062 145.480469 101.972656 142.84375 99.3125 141.527344 C 92.742188 139.769531 99.773438 113.9375 104.585938 115.175781 C 117.378906 118.460938 136.019531 123.710938 149.351562 127.550781 C 155.925781 119.285156 160.144531 114.371094 164.800781 110.335938 C 171.394531 104.625 186.125 98.3125 198.648438 95.398438 C 204.800781 104.515625 216.757812 118.417969 224.140625 112.09375 C 231.527344 105.765625 228.832031 99.046875 226.339844 94.960938 C 232.566406 93.542969 239.40625 90.710938 251.5625 87.492188 L 264.140625 54.984375 C 264.140625 50.152344 301.613281 58.5 295.347656 65.96875 C 293.554688 69.480469 288.667969 77.917969 283.441406 83.539062 C 276.375 95.3125 269.707031 107.289062 261.941406 112.09375 C 254.089844 116.953125 246.871094 117.996094 234.339844 119.550781 Z M 234.339844 119.550781 " fill-opacity="1" fill-rule="nonzero"/><path fill="#bc8e05" d="M 251.972656 87.65625 L 249.4375 94.027344 L 248.617188 93.699219 L 251.15625 87.332031 Z M 141.691406 136.582031 C 144.449219 133.0625 146.855469 129.992188 149.007812 127.28125 L 149.699219 127.828125 C 147.546875 130.535156 145.140625 133.601562 142.382812 137.121094 C 141.648438 138.0625 140.886719 139.035156 140.09375 140.039062 L 139.402344 139.496094 C 140.191406 138.492188 140.953125 137.519531 141.691406 136.582031 Z M 181.835938 129.515625 L 175.867188 136.351562 L 175.203125 135.777344 L 181.175781 128.9375 Z M 181.835938 129.515625 " fill-opacity="1" fill-rule="evenodd"/><path fill="#bc8e05" d="M 264.140625 54.984375 C 266.804688 65.527344 279.550781 73.433594 295.351562 65.96875 C 301.613281 58.5 264.140625 50.152344 264.140625 54.984375 Z M 264.140625 54.984375 " fill-opacity="1" fill-rule="nonzero"/><path fill="#bc8e05" d="M 104.585938 115.175781 C 109.445312 121.757812 106.808594 130.105469 99.3125 141.527344 C 92.742188 139.769531 99.773438 113.9375 104.585938 115.175781 Z M 104.585938 115.175781 " fill-opacity="1" fill-rule="nonzero"/><path fill="#f7aa8c" d="M 75.375 115.203125 C 83.488281 114.730469 87.359375 112.574219 96.675781 113.851562 C 100.394531 114.359375 103.148438 116.351562 106.300781 118.328125 C 107.605469 121.882812 107.160156 125.921875 105.285156 130.609375 L 98.4375 125.273438 C 95.523438 125.273438 93.871094 124.277344 93.285156 123.660156 C 92.425781 124.011719 91.492188 124.40625 90.496094 124.851562 C 85.582031 127.042969 78.777344 127.484375 81.800781 124.851562 C 83.609375 123.277344 87.222656 121.605469 89.984375 120.496094 C 88.503906 120.1875 81.925781 119.179688 78.824219 118.710938 L 78.777344 118.710938 C 73.378906 118.710938 64.742188 115.824219 75.375 115.203125 Z M 75.375 115.203125 " fill-opacity="1" fill-rule="nonzero"/><path fill="#f7aa8c" d="M 270.707031 49.722656 C 270.707031 44.058594 273.371094 42.828125 275.585938 42.117188 C 279.109375 38.179688 286.8125 30.066406 289.414062 29.097656 C 292.667969 27.882812 297.546875 27.882812 297.546875 29.097656 C 297.546875 30.3125 289.007812 33.949219 288.191406 35.566406 C 287.867188 36.21875 287.179688 37.308594 286.460938 38.398438 C 288.53125 37.457031 292.992188 36.132812 294.292969 38.398438 C 295.921875 41.230469 297.953125 52.957031 295.105469 51.339844 C 294.742188 51.132812 294.371094 50.804688 294.003906 50.390625 C 294.367188 51.847656 294.484375 53.28125 293.886719 54.171875 C 292.355469 56.457031 284.320312 61.007812 282.039062 68.875 C 275.839844 68.5625 270.765625 65.75 267.523438 61.726562 C 271.597656 57.507812 270.707031 54.941406 270.707031 49.722656 Z M 270.707031 49.722656 " fill-opacity="1" fill-rule="nonzero"/><path fill="#bc8e05" d="M 148.546875 292.644531 L 148.511719 292.484375 C 148.441406 292.144531 148.367188 291.816406 148.300781 291.492188 C 151.429688 294.15625 156.011719 296.5625 162.867188 297.230469 C 166.382812 285.777344 172.101562 268.273438 178.09375 250.246094 C 179.652344 247.265625 181.175781 244.066406 182.644531 240.753906 C 175.566406 261.933594 168.382812 283.78125 164.214844 297.335938 C 166.570312 297.480469 169.1875 297.425781 172.085938 297.117188 L 171.535156 298.496094 C 168.714844 298.761719 166.148438 298.792969 163.816406 298.628906 C 162.957031 301.457031 162.242188 303.875 161.710938 305.789062 C 161.246094 305.777344 160.796875 305.757812 160.359375 305.726562 C 160.886719 303.808594 161.605469 301.371094 162.476562 298.515625 C 156.1875 297.859375 151.71875 295.777344 148.503906 293.34375 C 148.570312 293.085938 148.589844 292.847656 148.546875 292.644531 Z M 148.546875 292.644531 " fill-opacity="1" fill-rule="nonzero"/><path fill="#bc8e05" d="M 175.234375 202.417969 C 174.910156 203.777344 174.589844 205.132812 174.269531 206.480469 C 172 216.039062 169.800781 225.28125 167.4375 232.929688 C 166.085938 237.296875 164.671875 241.164062 163.148438 244.292969 C 161.632812 247.40625 159.972656 249.847656 158.101562 251.289062 C 156.183594 252.765625 154.039062 253.1875 151.707031 252.242188 C 149.441406 251.320312 147.066406 249.132812 144.511719 245.585938 C 142.960938 243.425781 141.417969 240.179688 139.886719 236.191406 C 138.355469 232.191406 136.820312 227.410156 135.296875 222.15625 C 133.257812 215.117188 131.234375 207.21875 129.261719 199.207031 C 128.597656 199.777344 127.949219 200.375 127.324219 201 L 127.007812 199.464844 C 127.628906 198.875 128.261719 198.3125 128.910156 197.78125 C 128.46875 195.976562 128.03125 194.171875 127.59375 192.371094 C 127.910156 191.929688 128.261719 191.503906 128.640625 191.085938 C 129.105469 193.011719 129.574219 194.949219 130.046875 196.878906 C 132.441406 195.054688 134.964844 193.574219 137.398438 192.386719 C 141.113281 190.570312 144.640625 189.425781 147.207031 188.785156 C 147.226562 188.988281 147.238281 189.199219 147.246094 189.410156 C 147.550781 189.574219 147.90625 189.714844 148.242188 189.890625 C 145.734375 190.46875 141.96875 191.621094 137.976562 193.570312 C 135.445312 194.808594 132.832031 196.359375 130.390625 198.28125 C 132.410156 206.492188 134.476562 214.59375 136.5625 221.789062 C 138.082031 227.023438 139.605469 231.769531 141.121094 235.71875 C 142.640625 239.679688 144.132812 242.800781 145.585938 244.816406 C 148.085938 248.296875 150.285156 250.238281 152.203125 251.019531 C 154.058594 251.773438 155.710938 251.464844 157.296875 250.246094 C 158.925781 248.988281 160.476562 246.765625 161.964844 243.714844 C 163.445312 240.675781 164.835938 236.878906 166.175781 232.539062 C 168.527344 224.9375 170.710938 215.742188 172.984375 206.179688 C 173.304688 204.828125 173.628906 203.472656 173.953125 202.113281 C 176.472656 191.554688 179.140625 180.769531 182.28125 171.429688 C 182.667969 171.675781 183.054688 171.914062 183.433594 172.144531 C 180.359375 181.347656 177.730469 191.964844 175.234375 202.417969 Z M 175.234375 202.417969 " fill-opacity="1" fill-rule="nonzero"/><path fill="#e3e3f6" d="M 374.070312 86.347656 C 373.15625 87.867188 364.996094 96.410156 352.3125 104.96875 L 356.484375 64.777344 C 362.738281 66.644531 375.015625 73.566406 374.070312 86.347656 Z M 374.070312 86.347656 " fill-opacity="1" fill-rule="nonzero"/><path fill="#ffffff" d="M 289.347656 211.765625 L 297.339844 123.894531 C 318.742188 123.894531 338.292969 114.425781 352.316406 104.96875 C 365 96.410156 373.160156 87.867188 374.070312 86.347656 L 372.296875 110.3125 L 368.980469 155.046875 L 367.953125 168.878906 C 367.773438 171.335938 367.023438 173.71875 365.601562 175.734375 C 358.441406 185.914062 337.664062 209.636719 289.347656 211.765625 Z M 289.347656 211.765625 " fill-opacity="1" fill-rule="nonzero"/><path fill="#ffffff" d="M 39.167969 95.933594 L 27.976562 24.039062 C 48.492188 17.113281 101.511719 3.269531 149.46875 3.269531 L 155.0625 71.171875 C 120.535156 69.890625 63.945312 87.679688 39.167969 95.933594 Z M 39.167969 95.933594 " fill-opacity="1" fill-rule="nonzero"/><path fill="#ffffff" d="M 92.71875 206.175781 L 83.925781 127.886719 C 51.3125 121.496094 14.386719 88.210938 0 71.96875 L 11.464844 148.351562 C 11.808594 150.660156 12.632812 152.871094 13.691406 154.953125 C 19.515625 166.445312 31.273438 193.171875 92.71875 206.175781 Z M 92.71875 206.175781 " fill-opacity="1" fill-rule="nonzero"/><path fill="#78e5cf" d="M 7.558594 95.996094 L 8.429688 95.871094 L 11.804688 119.824219 L 15.21875 111.464844 L 29.679688 153.21875 L 36.871094 141.238281 L 48.195312 173.574219 L 57.695312 168.035156 L 67.269531 183.1875 L 79.679688 174.65625 L 80.179688 175.382812 L 67.011719 184.429688 L 57.402344 169.222656 L 47.71875 174.867188 L 36.660156 143.296875 L 29.464844 155.28125 L 15.152344 113.953125 L 12.046875 121.554688 L 15.871094 148.683594 C 16.222656 151.179688 17.171875 153.550781 18.671875 155.570312 C 24.851562 163.890625 31.867188 172.410156 42.292969 180.164062 C 52.71875 187.914062 66.574219 194.914062 86.4375 200.160156 L 86.210938 201.007812 C 66.253906 195.738281 52.296875 188.695312 41.769531 180.867188 C 31.242188 173.039062 24.164062 164.441406 17.96875 156.09375 C 16.378906 153.953125 15.371094 151.441406 15 148.808594 Z M 7.558594 95.996094 " fill-opacity="1" fill-rule="evenodd"/><path fill="#78e5cf" d="M 140.542969 7.714844 C 141.28125 7.636719 141.925781 8.183594 141.988281 8.914062 L 143.4375 26.320312 C 143.5 27.046875 142.957031 27.683594 142.230469 27.742188 L 123.988281 29.199219 C 123.269531 29.257812 122.640625 28.726562 122.570312 28.011719 L 121.109375 12.648438 C 121.0625 12.152344 121.292969 11.636719 121.789062 11.402344 C 123.617188 10.523438 126.988281 9.746094 130.527344 9.121094 C 134.082031 8.492188 137.859375 8.003906 140.542969 7.714844 Z M 141.113281 8.988281 C 141.089844 8.742188 140.875 8.566406 140.636719 8.589844 C 137.96875 8.875 134.207031 9.363281 130.679688 9.988281 C 127.128906 10.613281 123.871094 11.375 122.167969 12.191406 C 122.050781 12.25 121.964844 12.386719 121.984375 12.566406 L 123.445312 27.929688 C 123.46875 28.167969 123.679688 28.34375 123.917969 28.324219 L 142.160156 26.867188 C 142.402344 26.847656 142.582031 26.632812 142.5625 26.390625 Z M 141.113281 8.988281 " fill-opacity="1" fill-rule="evenodd"/><path fill="#78e5cf" d="M 128.300781 15.5 C 127.15625 15.746094 126.261719 16.0625 125.734375 16.414062 L 125.246094 15.683594 C 125.914062 15.238281 126.941406 14.894531 128.117188 14.640625 C 129.304688 14.386719 130.691406 14.214844 132.117188 14.132812 C 134.957031 13.972656 138.019531 14.167969 140.015625 14.835938 L 139.738281 15.667969 C 137.898438 15.054688 134.964844 14.851562 132.167969 15.011719 C 130.777344 15.089844 129.4375 15.257812 128.300781 15.5 Z M 139.039062 19.683594 C 132.046875 19.046875 128.753906 19.6875 126.425781 20.460938 L 126.148438 19.628906 C 128.621094 18.804688 132.039062 18.164062 139.117188 18.808594 Z M 135.082031 23.679688 C 130.632812 23.679688 127.421875 24.207031 126.394531 24.464844 L 126.183594 23.613281 C 127.289062 23.335938 130.578125 22.800781 135.082031 22.800781 Z M 135.082031 23.679688 " fill-opacity="1" fill-rule="evenodd"/><path fill="#78e5cf" d="M 37.929688 28.898438 L 38.800781 28.761719 L 42.375 51.507812 C 43.347656 49.933594 44.589844 48.324219 46.054688 46.953125 C 47.855469 45.269531 50.007812 43.929688 52.410156 43.496094 C 57.28125 42.621094 62.859375 45.503906 68.320312 55.773438 C 69.160156 57.113281 70.171875 58.515625 71.28125 59.714844 C 72.398438 60.921875 73.585938 61.894531 74.773438 62.398438 C 75.941406 62.898438 77.089844 62.9375 78.1875 62.316406 C 79.3125 61.683594 80.453125 60.324219 81.503906 57.867188 C 83.199219 53.890625 86.582031 50.570312 91.011719 50.253906 C 93.730469 50.058594 96.410156 50.996094 98.414062 52.847656 L 103.800781 57.8125 C 105.007812 58.929688 106.589844 59.546875 108.234375 59.546875 C 111.148438 59.546875 113.699219 57.601562 114.757812 54.84375 C 117.234375 48.390625 121.25 41.160156 126.636719 37.761719 C 129.347656 36.046875 132.417969 35.300781 135.792969 36.125 C 139.15625 36.949219 142.765625 39.320312 146.601562 43.722656 L 145.9375 44.296875 C 142.171875 39.972656 138.707031 37.746094 135.585938 36.980469 C 132.476562 36.21875 129.648438 36.898438 127.105469 38.503906 C 121.976562 41.742188 118.046875 48.738281 115.578125 55.160156 C 114.40625 58.214844 111.554688 60.425781 108.234375 60.425781 C 106.371094 60.425781 104.574219 59.722656 103.203125 58.460938 L 97.820312 53.492188 C 95.992188 51.808594 93.550781 50.953125 91.074219 51.128906 C 87.078125 51.414062 83.925781 54.421875 82.3125 58.210938 C 81.226562 60.75 79.984375 62.3125 78.621094 63.082031 C 77.234375 63.867188 75.792969 63.789062 74.429688 63.207031 C 73.082031 62.632812 71.789062 61.558594 70.636719 60.3125 C 69.476562 59.058594 68.425781 57.601562 67.566406 56.222656 L 67.550781 56.199219 C 62.144531 46.027344 56.859375 43.589844 52.566406 44.363281 C 50.382812 44.753906 48.378906 45.984375 46.65625 47.59375 C 44.976562 49.167969 43.585938 51.082031 42.589844 52.875 L 47.515625 84.203125 C 61.257812 80.609375 82.421875 75.367188 101.878906 71.160156 C 111.714844 69.03125 121.121094 67.167969 128.910156 65.914062 C 136.679688 64.667969 142.890625 64.015625 146.3125 64.34375 L 146.230469 65.21875 C 142.9375 64.902344 136.832031 65.53125 129.046875 66.785156 C 121.28125 68.03125 111.894531 69.890625 102.0625 72.019531 C 82.402344 76.269531 60.984375 81.582031 47.269531 85.175781 L 46.800781 85.300781 Z M 37.929688 28.898438 " fill-opacity="1" fill-rule="evenodd"/><path fill="#ffffff" d="M 131.882812 218.957031 L 127.089844 135.875 C 153.945312 145.460938 225.402344 143.066406 262.167969 134.277344 L 262.167969 218.957031 C 253.214844 221.511719 195.828125 236.53125 131.882812 218.957031 Z M 131.882812 218.957031 " fill-opacity="1" fill-rule="nonzero"/><path fill="#78e5cf" d="M 368.980469 155.046875 C 359.855469 165.203125 335.25 192.214844 305.167969 192.589844 C 304.789062 192.59375 304.449219 192.355469 304.351562 191.988281 C 303.167969 187.523438 304.113281 179.347656 315.175781 175.449219 C 318.125 174.410156 321.351562 174.476562 324.378906 173.699219 C 337.148438 170.410156 329.636719 152.492188 340.5 143.863281 C 342.367188 142.382812 347.332031 140.730469 352.101562 146.148438 C 354.429688 148.792969 358.332031 150.003906 361.21875 147.980469 C 362.757812 146.90625 363.652344 145.144531 363.699219 143.265625 C 363.941406 133.570312 365.855469 116.046875 372.292969 110.3125 Z M 368.980469 155.046875 " fill-opacity="1" fill-rule="nonzero"/><path fill="#78e5cf" d="M 337.894531 124.042969 L 359.546875 137.671875 L 368.105469 124.453125 L 368.84375 124.929688 L 359.816406 138.875 L 338.308594 125.34375 L 323.128906 162.074219 L 305.105469 151.433594 L 305.554688 150.675781 L 322.699219 160.804688 Z M 337.894531 124.042969 " fill-opacity="1" fill-rule="evenodd"/><path fill="#78e5cf" d="M 149.425781 188.164062 C 155.933594 187.511719 162.949219 190.050781 165.648438 191.402344 L 165.894531 191.523438 L 165.894531 207.328125 L 165.550781 207.402344 C 162.597656 208.058594 159.273438 207.917969 156.339844 207.488281 C 153.398438 207.058594 150.8125 206.332031 149.316406 205.789062 L 149.027344 205.683594 L 149.027344 188.203125 Z M 149.90625 189.003906 L 149.90625 205.066406 C 151.378906 205.574219 153.769531 206.222656 156.464844 206.617188 C 159.234375 207.023438 162.292969 207.15625 165.015625 206.617188 L 165.015625 192.070312 C 162.289062 190.761719 155.890625 188.527344 149.90625 189.003906 Z M 149.90625 189.003906 " fill-opacity="1" fill-rule="evenodd"/><path fill="#78e5cf" d="M 146.660156 156.046875 L 147.210938 156.230469 C 147.402344 156.292969 147.867188 156.378906 148.601562 156.476562 C 149.320312 156.570312 150.253906 156.671875 151.355469 156.777344 C 153.558594 156.992188 156.417969 157.21875 159.511719 157.445312 C 165.695312 157.898438 172.804688 158.339844 177.46875 158.605469 L 177.90625 158.628906 L 177.089844 172.511719 L 180.871094 178.621094 C 184.980469 178.269531 189.480469 178.859375 191.921875 179.382812 L 192.269531 179.457031 L 192.269531 209.582031 L 192.105469 209.714844 C 191.214844 210.425781 189.941406 210.824219 188.519531 211.035156 C 187.089844 211.242188 185.460938 211.261719 183.8125 211.167969 C 180.515625 210.980469 177.089844 210.332031 174.9375 209.796875 L 174.605469 209.714844 L 174.605469 180.355469 L 174.828125 180.230469 C 176.242188 179.421875 178.023438 178.960938 179.902344 178.722656 L 176.425781 173.105469 C 175.488281 173.238281 173.835938 173.285156 171.785156 173.28125 C 169.46875 173.277344 166.589844 173.207031 163.539062 173.101562 C 157.441406 172.890625 150.640625 172.53125 146.242188 172.261719 L 145.808594 172.234375 Z M 176.226562 172.246094 L 176.976562 159.457031 C 172.316406 159.1875 165.445312 158.761719 159.445312 158.324219 C 156.351562 158.097656 153.484375 157.867188 151.273438 157.652344 C 150.164062 157.546875 149.21875 157.441406 148.484375 157.347656 C 148.097656 157.296875 147.757812 157.242188 147.480469 157.191406 L 146.730469 171.414062 C 151.128906 171.675781 157.679688 172.019531 163.570312 172.222656 C 166.617188 172.332031 169.480469 172.402344 171.785156 172.402344 C 173.8125 172.40625 175.367188 172.355469 176.226562 172.246094 Z M 171.03125 164.273438 L 151.046875 163.476562 L 151.082031 162.597656 L 171.066406 163.398438 Z M 169.429688 168.269531 L 151.84375 167.46875 L 151.886719 166.59375 L 169.46875 167.390625 Z M 191.390625 180.171875 C 188.882812 179.667969 184.5625 179.144531 180.683594 179.519531 C 178.710938 179.710938 176.890625 180.128906 175.484375 180.871094 L 175.484375 209.023438 C 177.605469 209.535156 180.796875 210.113281 183.863281 210.289062 C 185.476562 210.382812 187.042969 210.359375 188.394531 210.164062 C 189.652344 209.980469 190.683594 209.648438 191.390625 209.152344 Z M 191.390625 180.171875 " fill-opacity="1" fill-rule="evenodd"/><path fill="#78e5cf" d="M 175.046875 209.371094 L 175.046875 180.613281 C 176.558594 179.75 178.535156 179.285156 180.640625 179.082031 C 184.761719 178.683594 189.359375 179.285156 191.832031 179.8125 L 191.832031 209.371094 C 188.632812 211.925781 179.308594 210.4375 175.046875 209.371094 Z M 175.046875 209.371094 " fill-opacity="1" fill-rule="nonzero"/><path fill="#78e5cf" d="M 211.097656 162.039062 C 214.378906 162.226562 217.371094 162.875 219.136719 163.414062 L 219.445312 163.511719 L 219.445312 207.992188 L 219.269531 208.125 C 216.605469 210.121094 213.03125 210.792969 209.703125 210.847656 C 206.363281 210.902344 203.203125 210.335938 201.300781 209.792969 L 200.980469 209.699219 L 200.980469 163.550781 L 201.242188 163.433594 C 204.210938 162.117188 207.824219 161.851562 211.097656 162.039062 Z M 201.863281 164.125 L 201.863281 209.035156 C 203.714844 209.53125 206.625 210.019531 209.6875 209.96875 C 212.859375 209.917969 216.132812 209.289062 218.566406 207.550781 L 218.566406 164.164062 C 216.835938 163.660156 214.066406 163.089844 211.046875 162.917969 C 207.933594 162.738281 204.597656 162.984375 201.863281 164.125 Z M 201.863281 164.125 " fill-opacity="1" fill-rule="evenodd"/><path fill="#78e5cf" d="M 227.800781 206.972656 L 227.800781 158.246094 C 233.554688 156.328125 241.386719 157.976562 244.582031 159.042969 L 244.582031 203.777344 C 239.46875 208.890625 231.261719 208.039062 227.800781 206.972656 Z M 227.800781 206.972656 " fill-opacity="1" fill-rule="nonzero"/><path fill="#78e5cf" d="M 211.289062 216.199219 C 189 218 162.191406 217.003906 139.730469 208.984375 L 140.023438 208.15625 C 162.324219 216.117188 188.988281 217.117188 211.21875 215.324219 C 222.332031 214.425781 232.320312 212.832031 240.085938 211.0625 C 243.96875 210.179688 247.292969 209.253906 249.917969 208.351562 C 252.554688 207.445312 254.453125 206.578125 255.519531 205.816406 L 256.03125 206.53125 C 254.859375 207.371094 252.855469 208.273438 250.203125 209.183594 C 247.539062 210.097656 244.1875 211.03125 240.28125 211.921875 C 232.472656 213.699219 222.4375 215.296875 211.289062 216.199219 Z M 211.289062 216.199219 " fill-opacity="1" fill-rule="evenodd"/><path fill="#78e5cf" d="M 340.5 125.492188 C 340.5 127.257812 339.425781 128.6875 338.101562 128.6875 C 336.777344 128.6875 335.703125 127.257812 335.703125 125.492188 C 335.703125 123.726562 336.777344 122.296875 338.101562 122.296875 C 339.425781 122.296875 340.5 123.726562 340.5 125.492188 Z M 340.5 125.492188 " fill-opacity="1" fill-rule="nonzero"/><path fill="#78e5cf" d="M 362.585938 136.816406 C 362.585938 138.578125 361.511719 140.007812 360.1875 140.007812 C 358.863281 140.007812 357.789062 138.578125 357.789062 136.816406 C 357.789062 135.050781 358.863281 133.621094 360.1875 133.621094 C 361.511719 133.621094 362.585938 135.050781 362.585938 136.816406 Z M 362.585938 136.816406 " fill-opacity="1" fill-rule="nonzero"/><path fill="#78e5cf" d="M 324.515625 160.640625 C 324.515625 162.40625 323.441406 163.835938 322.117188 163.835938 C 320.792969 163.835938 319.71875 162.40625 319.71875 160.640625 C 319.71875 158.875 320.792969 157.445312 322.117188 157.445312 C 323.441406 157.445312 324.515625 158.875 324.515625 160.640625 Z M 324.515625 160.640625 " fill-opacity="1" fill-rule="nonzero"/><path fill="#78e5cf" d="M 59.144531 169.429688 C 59.144531 170.75 58.074219 171.824219 56.746094 171.824219 C 55.421875 171.824219 54.351562 170.75 54.351562 169.429688 C 54.351562 168.105469 55.421875 167.03125 56.746094 167.03125 C 58.074219 167.03125 59.144531 168.105469 59.144531 169.429688 Z M 59.144531 169.429688 " fill-opacity="1" fill-rule="nonzero"/><path fill="#78e5cf" d="M 39.964844 142.269531 C 39.964844 143.589844 38.890625 144.664062 37.566406 144.664062 C 36.242188 144.664062 35.171875 143.589844 35.171875 142.269531 C 35.171875 140.941406 36.242188 139.871094 37.566406 139.871094 C 38.890625 139.871094 39.964844 140.941406 39.964844 142.269531 Z M 39.964844 142.269531 " fill-opacity="1" fill-rule="nonzero"/><path fill="#78e5cf" d="M 17.585938 111.910156 C 17.585938 113.234375 16.511719 114.308594 15.1875 114.308594 C 13.863281 114.308594 12.789062 113.234375 12.789062 111.910156 C 12.789062 110.585938 13.863281 109.515625 15.1875 109.515625 C 16.511719 109.515625 17.585938 110.585938 17.585938 111.910156 Z M 17.585938 111.910156 " fill-opacity="1" fill-rule="nonzero"/><path fill="#78e5cf" d="M 64.378906 129.046875 C 59.09375 126.585938 54 123.742188 50.925781 121.871094 L 51.382812 121.121094 C 54.4375 122.980469 59.496094 125.808594 64.75 128.25 C 70.015625 130.699219 75.417969 132.730469 79.167969 133.042969 L 79.09375 133.917969 C 75.171875 133.589844 69.644531 131.496094 64.378906 129.046875 Z M 68.039062 134.589844 C 64.53125 133.214844 61.472656 131.605469 59.738281 130.671875 L 60.15625 129.898438 C 61.882812 130.828125 64.902344 132.414062 68.359375 133.769531 C 71.824219 135.128906 75.695312 136.234375 79.128906 136.234375 L 79.128906 137.113281 C 75.53125 137.113281 71.539062 135.960938 68.039062 134.589844 Z M 68.039062 134.589844 " fill-opacity="1" fill-rule="evenodd"/></svg>